<?xml version="1.0" encoding="utf-8"?>
<!-- Generator: Adobe Illustrator 27.5.0, SVG Export Plug-In . SVG Version: 6.00 Build 0)  -->
<svg version="1.1" xmlns="http://www.w3.org/2000/svg" xmlns:xlink="http://www.w3.org/1999/xlink" x="0px" y="0px"
	 viewBox="0 0 3710 3710" style="enable-background:new 0 0 3710 3710;" xml:space="preserve">
<g id="Background">
	<g>
		<g>
			<rect style="fill:#FFFFFF;" width="3710" height="3710"/>
		</g>
	</g>
</g>
<g id="Illustration">
	<g>
		<linearGradient id="SVGID_1_" gradientUnits="userSpaceOnUse" x1="3487.3723" y1="3299.738" x2="1395.1019" y2="1469.0028">
			<stop  offset="0" style="stop-color:#DAE3FE"/>
			<stop  offset="1" style="stop-color:#E9EFFD"/>
		</linearGradient>
		<path style="fill:url(#SVGID_1_);" d="M3136.229,2346.625c-271.362,633.674-994.206,988.662-1621.058,892.906
			c-102.001-15.582-381.641-61.997-629.224-280.967c-476.613-421.534-578.54-1256.225-194.071-1844.452
			c279.826-428.126,781.443-670.816,1258.077-658.677c102.667,2.615,496.13,18.73,841.915,301.504
			c50.789,41.534,162.81,140.23,263.767,296.805C3292.701,1421.411,3313.078,1933.652,3136.229,2346.625z"/>
		<g>
			<path style="fill:#BDD0FB;" d="M3134.063,593.382c40.641,21.896,79.345,53.704,90.228,85.029
				c49.091,141.312-103.271,296.38-167.351,406.126c-110.084,188.535-178.112,403.66-171.323,623.343
				c7.356,238.037-4.786,468.795-78.557,697.694c-38.004,117.922-97.509,239.467-194.303,321.146
				c-182.912,154.306-537.88-16.53-570.108-234.522c-25.702-173.854,31.104-347.053,104.556-502.131
				c123.564-260.878,288.22-499.593,413.409-759.571c95.73-198.801,153.431-619.822,417.779-665.096
				C3026.734,557.12,3090.946,570.152,3134.063,593.382z"/>
			<path style="fill:#91B3FA;" d="M2279.199,3104.925c0.101,0,0.204,0,0.305-0.005c4.749-0.156,8.47-4.127,8.317-8.875
				c-10.572-326.449,24.995-656.906,105.718-982.181c64.586-260.264,158.06-517.817,277.825-765.503
				c203.877-421.638,415.919-671.38,418.039-673.855c3.088-3.606,2.669-9.034-0.94-12.122c-3.606-3.094-9.038-2.669-12.123,0.937
				c-2.134,2.489-215.624,253.933-420.458,677.555c-120.282,248.754-214.162,507.431-279.035,768.843
				c-81.104,326.818-116.838,658.854-106.214,986.887C2270.783,3101.248,2274.589,3104.913,2279.199,3104.925z"/>
		</g>
		<g>
			<path style="fill:#91B3FA;" d="M1732.111,2068.26c-75.852-200.829-262.437-375.502-405.924-552.339
				c-75.864-93.498-141.748-191.568-183.679-305.141c-41.691-112.922-55.953-252.362-158.852-330.4
				c-207.317-157.206-369.222,58.269-404.459,284.073c-40.893,262.031,86.825,580.945,160.962,840.114
				c44.695,156.24,74.801,325.335,136.437,475.508c102.106,248.778,245.469,380.787,418.073,427.369
				c165.554,44.679,340.357-24.959,430.115-171.067C1805.867,2604.39,1854.476,2392.241,1732.111,2068.26z"/>
			<path style="fill:#7D97F4;" d="M1719.031,3211.329c-4.667,0.205-9.368-1.731-12.525-5.649
				c-2.05-2.547-207.67-258.919-427.915-648.162c-203.384-359.452-461.368-909.212-535.409-1487.016
				c-1.069-8.337,4.823-15.963,13.156-17.029c8.372-1.19,15.959,4.823,17.029,13.156
				c140.525,1096.618,948.687,2109.839,956.835,2119.944c5.276,6.542,4.248,16.126-2.298,21.402
				C1725.279,3210.093,1722.164,3211.191,1719.031,3211.329z"/>
		</g>
		
			<linearGradient id="SVGID_00000102545982926846700920000000359794153507603348_" gradientUnits="userSpaceOnUse" x1="1721.1812" y1="2948.1658" x2="2325.7832" y2="2948.1658">
			<stop  offset="0" style="stop-color:#4F52FF"/>
			<stop  offset="1" style="stop-color:#4042E2"/>
		</linearGradient>
		<path style="fill:url(#SVGID_00000102545982926846700920000000359794153507603348_);" d="M1732.475,3250.467h582.015
			c6.237,0,11.293-5.056,11.293-11.294v-582.015c0-6.237-5.056-11.293-11.293-11.293h-582.015c-6.237,0-11.293,5.056-11.293,11.293
			v582.015C1721.181,3245.41,1726.237,3250.467,1732.475,3250.467z"/>
		
			<linearGradient id="SVGID_00000069390769670501271460000007900397999066149051_" gradientUnits="userSpaceOnUse" x1="1156.1862" y1="4837.9204" x2="1759.8142" y2="2389.116">
			<stop  offset="0" style="stop-color:#FF928E"/>
			<stop  offset="1" style="stop-color:#FE7062"/>
		</linearGradient>
		<path style="fill:url(#SVGID_00000069390769670501271460000007900397999066149051_);" d="M1477.815,2651.069h583.889
			c5.72,0,10.356-4.637,10.356-10.356v-583.889c0-5.719-4.636-10.356-10.356-10.356h-583.889c-5.72,0-10.356,4.637-10.356,10.356
			v583.889C1467.459,2646.433,1472.095,2651.069,1477.815,2651.069z"/>
		
			<linearGradient id="SVGID_00000018220477568666903350000013408747912203873706_" gradientUnits="userSpaceOnUse" x1="2234.5356" y1="1376.4707" x2="1628.4595" y2="2100.9751">
			<stop  offset="0" style="stop-color:#4F52FF"/>
			<stop  offset="1" style="stop-color:#4042E2"/>
		</linearGradient>
		<path style="fill:url(#SVGID_00000018220477568666903350000013408747912203873706_);" d="M1618.824,2068.608h579.197
			c7.015,0,12.703-5.687,12.703-12.703v-579.197c0-7.016-5.687-12.703-12.703-12.703h-579.197c-7.015,0-12.703,5.687-12.703,12.703
			v579.197C1606.122,2062.92,1611.809,2068.608,1618.824,2068.608z"/>
		<g>
			
				<linearGradient id="SVGID_00000104681417374927431980000011629245470735199116_" gradientUnits="userSpaceOnUse" x1="2344.6555" y1="3251.3052" x2="2154.3589" y2="3834.6038" gradientTransform="matrix(0.7738 -0.6335 0.6335 0.7738 -1465.5977 -47.8667)">
				<stop  offset="0" style="stop-color:#FEBBBA"/>
				<stop  offset="1" style="stop-color:#FF928E"/>
			</linearGradient>
			<path style="fill:url(#SVGID_00000104681417374927431980000011629245470735199116_);" d="M2340.473,1200.772
				c0,0,8.638,375.964,403.947,441.895l70.967-70.058c0,0-342.31-116.386-431.415-359.609l19.033-128.989l-13.414-85.363
				L2340.473,1200.772z"/>
			
				<linearGradient id="SVGID_00000176011363445158297180000008597377841521274265_" gradientUnits="userSpaceOnUse" x1="3192.2112" y1="-234.4258" x2="1181.7662" y2="2024.7379">
				<stop  offset="0" style="stop-color:#4F52FF"/>
				<stop  offset="1" style="stop-color:#4042E2"/>
			</linearGradient>
			<path style="fill:url(#SVGID_00000176011363445158297180000008597377841521274265_);" d="M2010.393,1066.614h586.069
				c5.118,0,9.266-4.149,9.266-9.266V471.278c0-5.118-4.149-9.266-9.266-9.266h-586.069c-5.118,0-9.266,4.149-9.266,9.266v586.069
				C2001.126,1062.465,2005.275,1066.614,2010.393,1066.614z"/>
			<g>
				
					<linearGradient id="SVGID_00000076587404408532447270000014780801591586691247_" gradientUnits="userSpaceOnUse" x1="3403.6565" y1="2812.5725" x2="3754.2566" y2="2812.5725" gradientTransform="matrix(1 0 0 1 -680.9728 0)">
					<stop  offset="0" style="stop-color:#FEBBBA"/>
					<stop  offset="1" style="stop-color:#FF928E"/>
				</linearGradient>
				<path style="fill:url(#SVGID_00000076587404408532447270000014780801591586691247_);" d="M2722.684,2488.917
					c0,0,187.551,408.771,285.952,578.083c0,0,19.543,106.534,0,140.035l-16.656,7.403l77.732-2.314c0,0,6.905-143.3,1.513-151.304
					c-5.394-8.004-16.179-7.479-16.179-7.479s-33.331-264.068-129.86-320.425l-93.549-322.208L2722.684,2488.917z"/>
				
					<linearGradient id="SVGID_00000114051736627835480390000006370144996226165160_" gradientUnits="userSpaceOnUse" x1="3885.5657" y1="2028.5244" x2="3711.9377" y2="3157.1006" gradientTransform="matrix(1 0 0 1 -680.9728 0)">
					<stop  offset="0" style="stop-color:#4F52FF"/>
					<stop  offset="1" style="stop-color:#4042E2"/>
				</linearGradient>
				<path style="fill:url(#SVGID_00000114051736627835480390000006370144996226165160_);" d="M2958.781,3234.506
					c-0.115,1.875,60.698,1.018,93.734,0.415c12.198-0.223,22.597-8.796,25.197-20.716l24.947-131.068
					c2.371-12.455-5.538-24.554-17.898-27.379l-13.925-3.183c0,0-19.865,27.25-13.612,52.907
					c6.253,25.656,11.818,92.115-3.985,99.859c-15.802,7.744-61.26,9.097-61.26,9.097S2959.821,3217.627,2958.781,3234.506z"/>
				
					<linearGradient id="SVGID_00000018221083444444991530000011798185668906175114_" gradientUnits="userSpaceOnUse" x1="3518.187" y1="1972.0082" x2="3344.5588" y2="3100.5862" gradientTransform="matrix(1 0 0 1 -680.9728 0)">
					<stop  offset="0" style="stop-color:#4F52FF"/>
					<stop  offset="1" style="stop-color:#4042E2"/>
				</linearGradient>
				<path style="fill:url(#SVGID_00000018221083444444991530000011798185668906175114_);" d="M2544.918,3236.885
					c-6.151,3.505-3.614,12.896,3.465,12.824c55.283-0.555,179.163-2.304,190.17-6.882c14.212-5.909-5.179-56.978-25.586-74.262
					l-112.681,36.776L2544.918,3236.885z"/>
				
					<linearGradient id="SVGID_00000083068299887665555510000005289326428368687503_" gradientUnits="userSpaceOnUse" x1="3190.9136" y1="2838.6418" x2="3393.9397" y2="2838.6418" gradientTransform="matrix(1 0 0 1 -680.9728 0)">
					<stop  offset="0" style="stop-color:#FEBBBA"/>
					<stop  offset="1" style="stop-color:#FF928E"/>
				</linearGradient>
				<path style="fill:url(#SVGID_00000083068299887665555510000005289326428368687503_);" d="M2509.941,2462.846
					c0,0,121.199,586.322,155.485,700.694l-81.108,50.898c0,0,40.645-6.913,70.785-9.097c30.14-2.184,57.863-36.776,57.863-36.776
					l-9.717-15.498c0,0-30.394-583.128-22.994-649.343L2509.941,2462.846z"/>
				
					<linearGradient id="SVGID_00000027571701395041052150000007064403263287014568_" gradientUnits="userSpaceOnUse" x1="2753.5598" y1="1315.4128" x2="3151.0193" y2="1315.4128" gradientTransform="matrix(1 0 0 1 -680.9728 0)">
					<stop  offset="0" style="stop-color:#FEBBBA"/>
					<stop  offset="1" style="stop-color:#FF928E"/>
				</linearGradient>
				<path style="fill:url(#SVGID_00000027571701395041052150000007064403263287014568_);" d="M2209.081,1095.249
					c0,0-16.718,304.999,260.965,460.854l-66.854,152.473c0,0-251.405-152.063-242.108-566.797
					c0.267-11.902-4.026-23.46-11.799-32.478l-53.431-61.987c-20.358-23.617-27.966-55.655-20.398-85.903l7.033-28.113
					c2.355-9.411,13.075-13.94,21.464-9.068l5.588,3.246c17.788,10.331,31.878,25.993,40.278,44.771l26.237,58.648
					c9.8,21.907,32.396,35.208,56.307,33.143l16.222-1.4L2209.081,1095.249z"/>
				
					<linearGradient id="SVGID_00000061458734436029311780000000652978264458228886_" gradientUnits="userSpaceOnUse" x1="3189.1079" y1="1531.48" x2="3934.2598" y2="3007.3149" gradientTransform="matrix(1 0 0 1 -680.9728 0)">
					<stop  offset="0" style="stop-color:#4F52FF"/>
					<stop  offset="1" style="stop-color:#4042E2"/>
				</linearGradient>
				<path style="fill:url(#SVGID_00000061458734436029311780000000652978264458228886_);" d="M2460.381,1533.248
					c46.456,12.883,203.842,54.285,302.095,52.593l-60.326,340.425l4.801,55.525l-196.687-0.882c0,0-55.369-128.589-99.053-192.697
					c-12.617-18.516-3.227-40.6,3.924-61.834l-9.824-6.541c-9.998-6.656-14.333-19.16-10.602-30.577l47.897-146.543
					C2445.093,1535.333,2452.871,1531.165,2460.381,1533.248z"/>
				
					<linearGradient id="SVGID_00000142176944807729980660000014564226810026876350_" gradientUnits="userSpaceOnUse" x1="3011.6621" y1="1921.4584" x2="3662.7646" y2="2655.7573" gradientTransform="matrix(1 0 0 1 -680.9728 0)">
					<stop  offset="0" style="stop-color:#09005D"/>
					<stop  offset="1" style="stop-color:#1A0F91"/>
				</linearGradient>
				<path style="fill:url(#SVGID_00000142176944807729980660000014564226810026876350_);" d="M2494.505,1951.856l3.869,33.638
					c0,0-55.583,166.459,27.792,555.245c0,0,180.573,51.156,328.983-71.253c0,0-41.864-366.955-53.299-384.048
					c-56.956-85.138-94.898-103.646-94.898-103.646l-1.712-36.75C2705.24,1945.042,2546.506,1973.741,2494.505,1951.856z"/>
				
					<linearGradient id="SVGID_00000068635333025489905290000011779941783521271737_" gradientUnits="userSpaceOnUse" x1="3252.4614" y1="1510.547" x2="3376.7029" y2="1510.547" gradientTransform="matrix(1 0 0 1 -680.9728 0)">
					<stop  offset="0" style="stop-color:#FEBBBA"/>
					<stop  offset="1" style="stop-color:#FF928E"/>
				</linearGradient>
				<path style="fill:url(#SVGID_00000068635333025489905290000011779941783521271737_);" d="M2571.497,1560.685
					c-0.69-0.911,41.063-126.057,41.063-126.057l59.806,5.426l23.364,141.971C2695.73,1582.025,2602,1600.943,2571.497,1560.685z"/>
				
					<linearGradient id="SVGID_00000067936119428624116180000005260046775222900155_" gradientUnits="userSpaceOnUse" x1="3449.9189" y1="1349.9922" x2="4354.229" y2="1411.4851" gradientTransform="matrix(1 0 0 1 -680.9728 0)">
					<stop  offset="0" style="stop-color:#FEBBBA"/>
					<stop  offset="1" style="stop-color:#FF928E"/>
				</linearGradient>
				<path style="fill:url(#SVGID_00000067936119428624116180000005260046775222900155_);" d="M2658.048,1237.272
					c-3.988,2.483-127.799,53.65-101.198,182.188c1.572,7.595,6.64,14.034,13.724,17.193c18.169,8.104,57.283,21.981,104.067,17.226
					c64.86-6.592,107.36-119.773,105.553-152.709C2778.387,1268.235,2697.573,1212.661,2658.048,1237.272z"/>
				
					<linearGradient id="SVGID_00000168801553857603477240000006868291064526950035_" gradientUnits="userSpaceOnUse" x1="3598.5559" y1="1295.4818" x2="3280.2393" y2="1932.1136" gradientTransform="matrix(1 0 0 1 -680.9728 0)">
					<stop  offset="0" style="stop-color:#09005D"/>
					<stop  offset="1" style="stop-color:#1A0F91"/>
				</linearGradient>
				<path style="fill:url(#SVGID_00000168801553857603477240000006868291064526950035_);" d="M2695.73,1187.3
					c-3.255,0.427-71.549,24.213-37.682,73.701c33.867,49.487,46.572,78.619,30.553,100.35
					c-14.594,19.798-46.923,8.514-44.102,49.704c0.564,8.245-3.002,16.249-9.845,20.882
					c-30.465,20.622-104.791,84.095-31.152,174.616c5.986,7.358,7.219,17.515,2.601,25.798
					c-21.568,38.686-66.873,152.014,97.146,214.879c162.076,62.119,220.595-43.827,236.944-86.173
					c3.536-9.159,12.554-14.766,22.361-14.303c17.809,0.841,43.047-2.121,41.886-25.921c-0.705-14.456-9.724-27.41-20.384-37.797
					c-10.55-10.28-8.466-28.279,4.342-35.556c9.675-5.497,18.236-14.079,21.851-27.469c9.821-36.397-9.788-145.225-114.102-163.668
					c-8.701-1.538-17.813-9.696-19.08-18.442c-0.019-0.13-0.039-0.26-0.061-0.39c-1.398-8.457,1.463-17.105,8.375-22.176
					c16.656-12.22,38.018-36.819,20.668-76.269c-15.388-34.989-44.9-46.792-66.822-50.552c-12.871-2.209-21.334-14.381-18.62-27.155
					C2828.001,1226.551,2821.556,1170.803,2695.73,1187.3z"/>
			</g>
		</g>
		<g>
			
				<linearGradient id="SVGID_00000083082407155471849660000005017235446921927306_" gradientUnits="userSpaceOnUse" x1="591.7162" y1="3191.9819" x2="738.8995" y2="3191.9819">
				<stop  offset="0" style="stop-color:#09005D"/>
				<stop  offset="1" style="stop-color:#1A0F91"/>
			</linearGradient>
			<path style="fill:url(#SVGID_00000083082407155471849660000005017235446921927306_);" d="M612.205,3140.118
				c0,0-16.355,25.781-20.47,97.96c-0.383,6.725,4.944,12.455,11.68,12.455h127.913c5.147,0,8.82-5.046,7.172-9.922
				c-7.496-22.185-30.159-76.272-80.728-107.179L612.205,3140.118z"/>
			
				<linearGradient id="SVGID_00000150791872948291983270000005847448457556684952_" gradientUnits="userSpaceOnUse" x1="606.6464" y1="3123.5874" x2="666.3391" y2="3123.5874">
				<stop  offset="0" style="stop-color:#FEBBBA"/>
				<stop  offset="1" style="stop-color:#FF928E"/>
			</linearGradient>
			<path style="fill:url(#SVGID_00000150791872948291983270000005847448457556684952_);" d="M606.646,3091.21l7.235,60.663
				c0.624,5.234,4.726,9.423,9.962,10.027c6.996,0.806,17.165,1.374,27.047-0.256c8.983-1.482,15.448-9.483,15.448-18.587v-58.571
				L606.646,3091.21z"/>
			
				<linearGradient id="SVGID_00000127744425830113300410000014817952695002236329_" gradientUnits="userSpaceOnUse" x1="904.7183" y1="3189.6289" x2="1135.6541" y2="3189.6289">
				<stop  offset="0" style="stop-color:#09005D"/>
				<stop  offset="1" style="stop-color:#1A0F91"/>
			</linearGradient>
			<path style="fill:url(#SVGID_00000127744425830113300410000014817952695002236329_);" d="M928.685,3133.432
				c0,0-24.482,38.055-23.959,90.29c0.123,12.304,10.424,22.104,22.729,22.104h198.663c9.302,0,13.079-11.953,5.466-17.3
				c-37.592-26.398-111.48-75.712-164.922-95.095H928.685z"/>
			
				<linearGradient id="SVGID_00000120530207412225907050000008246001872691273131_" gradientUnits="userSpaceOnUse" x1="908.2266" y1="3097.0818" x2="967.59" y2="3097.0818">
				<stop  offset="0" style="stop-color:#FEBBBA"/>
				<stop  offset="1" style="stop-color:#FF928E"/>
			</linearGradient>
			<path style="fill:url(#SVGID_00000120530207412225907050000008246001872691273131_);" d="M908.227,3067.917l15.431,74.922
				c1.727,8.38,9.923,14.015,18.274,12.151c5.077-1.133,11.066-3.304,17.465-7.305c6.082-3.802,9.164-11.036,7.921-18.101
				l-15.962-90.767L908.227,3067.917z"/>
			
				<linearGradient id="SVGID_00000103233177743899155680000005682956685930770102_" gradientUnits="userSpaceOnUse" x1="569.5574" y1="2558.6785" x2="974.2587" y2="2558.6785">
				<stop  offset="0" style="stop-color:#09005D"/>
				<stop  offset="1" style="stop-color:#1A0F91"/>
			</linearGradient>
			<path style="fill:url(#SVGID_00000103233177743899155680000005682956685930770102_);" d="M651.128,2002.578
				c0,0-69.793,70.969-79.89,127.883c-10.098,56.913,28.609,981.943,28.609,981.943s53.654,8.927,81.313-7.833
				c0,0,32.804-600.337,57.74-739.06c0,0,130.767,621.87,167,734.235c0,0,51.691,6.288,68.359-3.548
				c0,0-31.126-821.102-74.168-964.417L651.128,2002.578z"/>
			
				<linearGradient id="SVGID_00000054963538160410290980000008966792691371240883_" gradientUnits="userSpaceOnUse" x1="659.4845" y1="2280.6643" x2="743.1639" y2="2280.6643">
				<stop  offset="0" style="stop-color:#4F52FF"/>
				<stop  offset="1" style="stop-color:#4042E2"/>
			</linearGradient>
			<path style="fill:url(#SVGID_00000054963538160410290980000008966792691371240883_);" d="M737.333,2346
				c-2.588,0-4.949-1.738-5.63-4.356l-22.215-85.226l-47.323-30.356c-2.707-1.738-3.495-5.341-1.758-8.048
				c1.737-2.712,5.331-3.501,8.048-1.758l49.24,31.588c1.232,0.789,2.124,2.016,2.49,3.434l22.787,87.427
				c0.815,3.114-1.052,6.295-4.166,7.104C738.312,2345.938,737.822,2346,737.333,2346z"/>
			
				<linearGradient id="SVGID_00000089559170079987938030000014612939124813227441_" gradientUnits="userSpaceOnUse" x1="1404.6788" y1="601.9078" x2="1205.2079" y2="1190.178">
				<stop  offset="0" style="stop-color:#4F52FF"/>
				<stop  offset="1" style="stop-color:#4042E2"/>
			</linearGradient>
			<path style="fill:url(#SVGID_00000089559170079987938030000014612939124813227441_);" d="M1150.502,1434.449
				c-223.672-36.628-286.232,5.279-286.232,5.279l94.597,179.443c0,0,221.59,13.253,389.853-96.306
				c-27.124-34.316-44.916-71.269-55.942-99.816C1250.545,1436.781,1202.677,1442.992,1150.502,1434.449z"/>
			
				<linearGradient id="SVGID_00000127010024925422374520000006410605984861822135_" gradientUnits="userSpaceOnUse" x1="1330.0878" y1="1480.2012" x2="1816.9294" y2="841.2203">
				<stop  offset="0" style="stop-color:#FEBBBA"/>
				<stop  offset="1" style="stop-color:#FF928E"/>
			</linearGradient>
			<path style="fill:url(#SVGID_00000127010024925422374520000006410605984861822135_);" d="M1529.428,1132.03
				c0.271-7.239-9.351-9.981-12.936-3.686l-33.615,59.02c-6.494,11.404-9.331,24.526-8.125,37.594l7.235,36.486
				c1.629,17.642-4.338,35.11-16.468,48.024c-29.027,30.901-90.052,86.698-172.741,113.581c11.025,28.547,28.818,65.5,55.942,99.816
				c61.739-40.198,116.308-96.911,150.103-176.907c13.375-2.97,23.078-14.568,23.647-28.257L1529.428,1132.03z"/>
			
				<linearGradient id="SVGID_00000098906745947905391000000017316076940885337272_" gradientUnits="userSpaceOnUse" x1="1390.3979" y1="1014.588" x2="795.3696" y2="2076.1746">
				<stop  offset="0" style="stop-color:#4F52FF"/>
				<stop  offset="1" style="stop-color:#4042E2"/>
			</linearGradient>
			<path style="fill:url(#SVGID_00000098906745947905391000000017316076940885337272_);" d="M1144.117,1460.249
				c-96.788-65.548-253.076-69.115-342.094-64.835c-38.999,1.874-71.075,31.24-76.086,69.96
				c-14.529,112.247-56.869,405.327-66.444,456.241c-5.118,27.204-37.601,91.181-20.124,115.297
				c6.322,8.724,16.525,13.631,26.377,17.991c28.521,12.621,57.742,23.582,86.945,34.535c21.843,8.193,43.686,16.385,65.529,24.578
				c29.068,10.903,78.779,31.58,105.127,6.979c26.294-24.55,26.54-67.062,36.273-99.279c8.784-29.076,18.728-57.855,28.083-86.752
				c23.952-73.99,47.903-147.98,71.855-221.97c1.015-3.135,17.753-47.329,15.77-48.714
				c155.536,108.597,266.834,96.062,343.151,46.752c-24.015-40.031-43.209-81.262-57.655-123.679
				C1232.931,1594.748,1144.117,1460.249,1144.117,1460.249z"/>
			
				<linearGradient id="SVGID_00000001653605658547408560000009067082761493570731_" gradientUnits="userSpaceOnUse" x1="2228.4475" y1="2247.1572" x2="2542.8469" y2="1547.3647" gradientTransform="matrix(0.9743 -0.2255 0.2255 0.9743 -1199.933 -226.5964)">
				<stop  offset="0" style="stop-color:#FEBBBA"/>
				<stop  offset="1" style="stop-color:#FF928E"/>
			</linearGradient>
			<path style="fill:url(#SVGID_00000001653605658547408560000009067082761493570731_);" d="M1558.82,1517.268l-29.051-24.463
				c-60.448,65.993-117.817,91.595-168.946,94.549c14.446,42.417,33.64,83.648,57.655,123.679
				C1519.017,1646.073,1558.82,1517.268,1558.82,1517.268z"/>
			
				<linearGradient id="SVGID_00000105404249802432649430000008019737356326398600_" gradientUnits="userSpaceOnUse" x1="2374.6714" y1="2312.8538" x2="2689.0623" y2="1613.0801" gradientTransform="matrix(0.9743 -0.2255 0.2255 0.9743 -1199.933 -226.5964)">
				<stop  offset="0" style="stop-color:#FEBBBA"/>
				<stop  offset="1" style="stop-color:#FF928E"/>
			</linearGradient>
			<path style="fill:url(#SVGID_00000105404249802432649430000008019737356326398600_);" d="M1543.291,1521.426l126.199-24.068
				l100.27-90.965c-18.927-6.536-107.5,36.274-107.5,36.274s-101.134,7.835-127.589,13.92c-21.973,5.055-11.524,35.915-7.353,46.228
				c0.851,2.104,1.441,3.352,1.441,3.352L1543.291,1521.426z"/>
			
				<linearGradient id="SVGID_00000124847705421686635100000004111323015044958647_" gradientUnits="userSpaceOnUse" x1="1933.0571" y1="1629.2877" x2="1471.3868" y2="2477.5615" gradientTransform="matrix(0.9743 -0.2255 0.2255 0.9743 -1199.933 -226.5964)">
				<stop  offset="0" style="stop-color:#FEBBBA"/>
				<stop  offset="1" style="stop-color:#FF928E"/>
			</linearGradient>
			<path style="fill:url(#SVGID_00000124847705421686635100000004111323015044958647_);" d="M884.055,1214.911l-28.724,176.301
				c0,0,87.968,34.935,147.814,15.823l-0.575-152.417L884.055,1214.911z"/>
			<g>
				
					<linearGradient id="SVGID_00000119824784527446290100000012805436487780333989_" gradientUnits="userSpaceOnUse" x1="1259.5951" y1="4824.3008" x2="1055.5555" y2="5094.2285" gradientTransform="matrix(0.6659 -0.7461 0.7461 0.6659 -3493.8445 -1162.722)">
					<stop  offset="0" style="stop-color:#FEBBBA"/>
					<stop  offset="1" style="stop-color:#FF928E"/>
				</linearGradient>
				<path style="fill:url(#SVGID_00000119824784527446290100000012805436487780333989_);" d="M970.122,1079.335
					c2.007,1.792,86.884,158.099,86.884,158.099l-90.279,46.567l-102.456-136.196
					C864.271,1147.806,936.524,1049.344,970.122,1079.335z"/>
				
					<linearGradient id="SVGID_00000062174380089775995900000007150560173294172846_" gradientUnits="userSpaceOnUse" x1="1103.7714" y1="4889.4131" x2="1347.5032" y2="4889.4131" gradientTransform="matrix(0.6659 -0.7461 0.7461 0.6659 -3493.8445 -1162.722)">
					<stop  offset="0" style="stop-color:#09005D"/>
					<stop  offset="1" style="stop-color:#1A0F91"/>
				</linearGradient>
				<path style="fill:url(#SVGID_00000062174380089775995900000007150560173294172846_);" d="M905.727,1162.506l48.32,75.919
					c0.62,0.974,1.348,1.838,2.208,2.608c5.263,4.711,24.56,19.592,38.581-1.08c12.722-18.757,24.611-35.685,37.903-41.335
					c5.967-2.536,12.872-0.134,15.965,5.565c7.708,14.204,24.485,46.532,34.776,76.842c2.088,6.151-0.942,12.848-6.886,15.467
					c-17.911,7.893-56.151,23.484-89.853,28.819c-4.567,0.723-9.145-1.058-11.967-4.72c-13.759-17.854-55.781-71.964-69.823-85.23
					c-13.18-12.452-37.046-6.494-46.889-3.278c-3.227,1.054-6.712,0.743-9.704-0.862c-10.574-5.672-31.86-21.475-13.774-50.474
					c3.785-6.069,1.812-13.99-4.369-17.589c-12.306-7.165-27.017-21.518-15.014-46.32c12.199-25.209,35.577-27.056,50.589-25.208
					c6.071,0.746,11.629-3.032,13.486-8.859c1.058-3.318,3.568-6.224,8.912-6.985c7.201-1.027,11.774-8.293,10.007-15.348
					c-3.394-13.556-2.501-31.881,19.412-44.695c38.883-22.737,74.38,11.696,83.959,41.303c9.578,29.607-33.98,51.863-61.637,56.116
					c-21.028,3.235-31.634,27.274-35.51,38.611C903.188,1155.365,903.689,1159.304,905.727,1162.506z"/>
				
					<linearGradient id="SVGID_00000145053454529575936300000001836873181409813681_" gradientUnits="userSpaceOnUse" x1="1048.4899" y1="976.104" x2="761.1163" y2="1466.3301">
					<stop  offset="0" style="stop-color:#FEBBBA"/>
					<stop  offset="1" style="stop-color:#FF928E"/>
				</linearGradient>
				<path style="fill:url(#SVGID_00000145053454529575936300000001836873181409813681_);" d="M922.819,1262.83
					c0,0-18.904-50.873-41.313-48.394c-22.408,2.479-39.492,25.32-10.993,49.735C905.963,1294.54,922.819,1262.83,922.819,1262.83z"
					/>
			</g>
			
				<linearGradient id="SVGID_00000114057827352667472200000003426954715467774369_" gradientUnits="userSpaceOnUse" x1="782.4823" y1="4756.9888" x2="1385.1891" y2="2311.9216">
				<stop  offset="0" style="stop-color:#FF928E"/>
				<stop  offset="1" style="stop-color:#FE7062"/>
			</linearGradient>
			<path style="fill:url(#SVGID_00000114057827352667472200000003426954715467774369_);" d="M1379.807,1447.27h586.069
				c5.118,0,9.266-4.149,9.266-9.266V851.934c0-5.118-4.149-9.266-9.266-9.266h-586.069c-5.118,0-9.266,4.149-9.266,9.266v586.069
				C1370.541,1443.121,1374.689,1447.27,1379.807,1447.27z"/>
		</g>
		<path style="fill:#FFFFFF;" d="M2222.912,548.756c0-25.82,19.573-47.349,45.257-49.996c12.383-1.276,25.743-2.094,38.601-2.094
			c38.816,0,58.956,4.699,78.365,18.801c20.872,14.776,37.717,47.682,37.717,96.033c0,38.28-11.718,74.543-41.745,94.018v1.343
			c30.76,14.773,50.169,55.067,50.169,111.477c0,44.325-12.818,79.245-30.761,102.078c-19.774,24.175-51.999,38.277-106.927,38.277
			c-8.62,0-16.569-0.264-23.853-0.723c-26.371-1.665-46.823-23.703-46.823-50.126V548.756z M2291.39,671.94h14.647
			c32.225,0,46.872-16.119,46.872-44.322c0-25.521-12.084-40.294-36.619-40.294c-13.182,0-20.141,1.343-24.901,2.686V671.94z
			 M2291.39,865.348c5.493,1.343,12.084,1.343,22.338,1.343c24.168,0,44.308-15.447,44.308-55.067
			c0-38.28-20.872-51.039-48.703-51.039h-17.943V865.348z"/>
		<path style="fill:#FFFFFF;" d="M1543.363,949.512c0-17.008,12.48-31.383,29.302-33.886c16.332-2.431,35.889-4.056,57.851-4.056
			c41.379,0,68.844,10.742,87.886,35.591c15.747,20.818,25.633,53.724,25.633,99.389c0,60.441-26.731,98.718-43.943,108.791v2.685
			c16.479,12.762,25.633,42.308,32.59,79.917c5.088,27.987,10.175,63.325,14.455,90.771c3.238,20.766-12.813,39.51-33.83,39.51
			h-2.203c-16.3,0-30.366-11.475-33.562-27.459c-3.499-17.501-7.747-42.263-12.605-75.961
			c-7.691-54.396-17.577-65.141-40.647-65.141h-12.45v134.322c0,18.91-15.329,34.239-34.239,34.239l0,0
			c-18.91,0-34.239-15.329-34.239-34.239V949.512z M1611.84,1110.349h20.506c27.098,0,43.211-20.147,43.211-54.396
			c0-34.249-13.916-51.71-37.352-51.71c-15.379,0-22.704,1.343-26.365,2.686V1110.349z"/>
		<path style="fill:#FFFFFF;" d="M1867.152,1894.429l-10.771,72.694c-1.594,10.755-10.825,18.72-21.698,18.72h-27.878
			c-13.614,0-23.94-12.273-21.611-25.686l70.956-408.758c1.825-10.51,10.945-18.183,21.612-18.183h57.727
			c10.596,0,19.678,7.575,21.579,17.999l74.551,408.758c2.456,13.468-7.889,25.87-21.579,25.87h-31.918
			c-10.768,0-19.943-7.816-21.656-18.447l-11.796-73.24c-1.712-10.631-10.888-18.447-21.656-18.447h-34.164
			C1877.978,1875.709,1868.746,1883.674,1867.152,1894.429z M1905.23,1783.033c13.54,0,23.846-12.146,21.642-25.505l-8.976-54.408
			c-3.451-20.043-7.353-44.642-10.999-66.964c-0.509-3.116-5.002-3.078-5.451,0.047c-2.811,19.559-7.294,50.542-9.916,67.589
			l-8,54.099C1881.573,1771.137,1891.839,1783.033,1905.23,1783.033L1905.23,1783.033z"/>
		<path style="fill:#FFFFFF;" d="M1653.785,2557.112l0.517-408.758c0.015-12.104,9.831-21.907,21.935-21.907h48.722
			c9.609,0,18.1,6.255,20.949,15.432l35.857,115.52c13.086,41.862,25.921,91.607,37.03,141.143c0.762,3.4,5.775,2.786,5.682-0.697
			c-1.082-40.351-2.797-110.928-2.797-153.205v-96.259c0-12.114,9.82-21.935,21.935-21.935h20.186
			c12.125,0,21.95,9.837,21.935,21.962l-0.517,408.758c-0.015,12.104-9.831,21.907-21.935,21.907h-37.488
			c-9.727,0-18.293-6.407-21.041-15.738l-39.468-134.019c-13.672-45.48-28.724-97.54-41.8-150.908
			c-0.813-3.32-5.692-2.728-5.675,0.69c0.21,42.164,0.603,127.598,0.603,177.753l-0.47,100.39
			c-0.057,12.074-9.861,21.832-21.935,21.832h-20.289C1663.594,2579.075,1653.77,2569.237,1653.785,2557.112z"/>
		<path style="fill:#FFFFFF;" d="M1910.219,2747.263c0-10.566,7.533-19.587,17.912-21.57c20.563-3.928,44.505-5.893,68.876-5.893
			c52,0,83.857,14.102,110.956,45.665c28.929,33.577,49.069,88.645,49.069,171.247c0,94.015-21.239,151.099-45.408,184.677
			c-30.394,42.308-76.167,60.438-128.166,60.438c-23.509,0-41.433-1.66-54.84-3.915c-10.605-1.783-18.399-10.897-18.399-21.651
			V2747.263z M1979.429,3083.109c4.028,1.343,10.986,1.343,16.113,1.343c50.534,1.346,87.519-42.305,87.519-141.026
			c0-89.987-34.787-127.595-79.463-127.595c-12.817,0-20.507,2.017-24.168,3.36V3083.109z"/>
	</g>
</g>
</svg>
