<?xml version="1.0" encoding="utf-8"?>
<!-- Generator: Adobe Illustrator 27.5.0, SVG Export Plug-In . SVG Version: 6.00 Build 0)  -->
<svg version="1.1" xmlns="http://www.w3.org/2000/svg" xmlns:xlink="http://www.w3.org/1999/xlink" x="0px" y="0px"
	 viewBox="0 0 500 500" style="enable-background:new 0 0 500 500;" xml:space="preserve">
<g id="BACKGROUND">
	<g id="Favoritos">
	</g>
	<g id="Favoritos_1_">
	</g>
	<rect style="fill:#FDC00F;" width="500" height="500"/>
</g>
<g id="OBJECTS">
	<g id="Favoritos_2_">
	</g>
	<g>
		<path style="fill:#CD9C0C;" d="M337.767,342.384c0,8.768-39.295,15.873-87.767,15.873c-48.472,0-87.766-7.105-87.766-15.873
			c0-8.768,39.294-15.875,87.766-15.875C298.472,326.509,337.767,333.616,337.767,342.384z"/>
		<g>
			<g>
				<g>
					<polygon style="fill:#81C1CA;" points="215.643,330.499 225.619,320.522 276.508,320.522 284.355,330.499 300.734,342.425 
						300.734,344.472 199.266,344.472 199.266,342.425 					"/>
					<rect x="199.266" y="342.425" style="fill:#C2E9FA;" width="101.469" height="4.094"/>
					<rect x="215.643" y="300.592" style="fill:#113243;" width="68.712" height="29.907"/>
					<path style="fill:#C2E9FA;" d="M337.48,301.391c0,4.161-3.373,7.535-7.537,7.535h-159.89c-4.161,0-7.535-3.374-7.535-7.535
						V175.567c0-4.162,3.374-7.535,7.535-7.535h159.89c4.164,0,7.537,3.373,7.537,7.535V301.391z"/>
					<path style="fill:#113243;" d="M329.943,168.032h-159.89c-4.161,0-7.535,3.373-7.535,7.535v117.606H337.48V175.567
						C337.48,171.405,334.107,168.032,329.943,168.032z"/>
					<rect x="170.036" y="175.454" style="fill:#40A9D8;" width="159.927" height="109.682"/>
					<rect x="170.036" y="175.454" style="fill:#C2E9FA;" width="159.927" height="3.541"/>
				</g>
				<path style="fill:#113243;" d="M254.448,300.592c0,2.455-1.992,4.447-4.448,4.447s-4.448-1.992-4.448-4.447
					c0-2.459,1.992-4.45,4.448-4.45S254.448,298.133,254.448,300.592z"/>
				<path style="fill:#113243;" d="M172.627,177.224c0,0.481-0.39,0.872-0.872,0.872c-0.482,0-0.873-0.391-0.873-0.872
					c0-0.482,0.391-0.872,0.873-0.872C172.237,176.352,172.627,176.741,172.627,177.224z"/>
				<path style="fill:#A6A6AA;" d="M251.771,171.71c0,0.802-0.648,1.45-1.447,1.45c-0.8,0-1.448-0.648-1.448-1.45
					c0-0.799,0.648-1.447,1.448-1.447C251.124,170.263,251.771,170.911,251.771,171.71z"/>
				<rect x="328.453" y="178.995" style="fill:#F4F4F4;" width="1.51" height="106.141"/>
				<path style="fill:#113243;" d="M329.963,197.974c0,0.418-0.338,0.755-0.754,0.755l0,0c-0.418,0-0.756-0.337-0.756-0.755v-4.86
					c0-0.418,0.338-0.756,0.756-0.756l0,0c0.416,0,0.754,0.338,0.754,0.756V197.974z"/>
				<rect x="175.033" y="176.614" style="fill:#113243;" width="7.93" height="1.22"/>
				<rect x="184.649" y="176.614" style="fill:#113243;" width="7.931" height="1.22"/>
				<rect x="194.267" y="176.614" style="fill:#113243;" width="7.931" height="1.22"/>
				<rect x="203.885" y="176.614" style="fill:#113243;" width="7.931" height="1.22"/>
				<rect x="213.502" y="176.614" style="fill:#113243;" width="7.93" height="1.22"/>
				<rect x="223.121" y="176.614" style="fill:#113243;" width="7.929" height="1.22"/>
				<g>
					<g>
						<g>
							<path style="fill:#113243;" d="M304.909,178.184c-0.53,0-0.96-0.431-0.96-0.96c0-0.53,0.43-0.959,0.96-0.959
								c0.528,0,0.959,0.429,0.959,0.959C305.868,177.753,305.438,178.184,304.909,178.184z M304.909,176.87
								c-0.197,0-0.355,0.159-0.355,0.354c0,0.194,0.158,0.354,0.355,0.354c0.193,0,0.352-0.159,0.352-0.354
								C305.261,177.029,305.102,176.87,304.909,176.87z"/>
						</g>
					</g>
					<polygon style="fill:#113243;" points="309.3,176.63 308.113,177.816 306.928,176.63 					"/>
					<polygon style="fill:#113243;" points="311.055,177.223 312.242,178.41 312.242,176.037 					"/>
					<rect x="312.582" y="176.037" style="fill:#113243;" width="0.346" height="2.373"/>
					<rect x="313.284" y="176.037" style="fill:#113243;" width="0.346" height="2.373"/>
					<g>
						
							<text transform="matrix(1 0 0 1 315.0645 178.0415)" style="fill:#113243; font-family:'BebasNeueRegular'; font-size:2.5118px;">08:00 AM</text>
					</g>
					<rect x="323.318" y="176.037" style="fill:#F4F4F4;" width="4.189" height="2.373"/>
					<rect x="323.318" y="176.037" style="fill:#113243;" width="3.022" height="2.373"/>
				</g>
			</g>
			<g>
				<g>
					<path style="fill:#FFFFFF;" d="M262.738,261.255c-1.255,0.563-2.544,1.056-3.878,1.45c1.279-1.153,2.479-2.403,3.588-3.729
						l-0.684-5.399c-2.592,3.892-5.924,7.2-9.871,9.649v-14.761c3.291,0.196,6.481,0.91,9.487,2.09l-0.507-4.001
						c-2.881-0.942-5.893-1.519-8.98-1.686v-10.267h15.96c-0.132,2.932-0.589,5.779-1.334,8.501l3.167,2.604
						c1.124-3.521,1.799-7.25,1.956-11.105h9.485c-0.335,5.918-2.33,11.396-5.521,15.98l2.773,2.282
						c4.02-5.671,6.393-12.589,6.393-20.055c0-8.975-3.422-17.169-9.025-23.345l0.042-0.042l-1.279-1.274
						c-5.676-5.638-12.955-9.081-20.804-9.909c-0.06-0.007-0.117-0.016-0.177-0.021c-0.479-0.047-0.959-0.082-1.441-0.11
						c-0.107-0.007-0.215-0.019-0.322-0.023c-0.2-0.01-0.403-0.01-0.605-0.017c-0.782-0.063-1.582-0.107-2.409-0.116
						c-0.25-0.006-0.485,0.057-0.716,0.148c-0.041,0.001-0.086,0.005-0.125,0.008c-0.484,0.028-0.964,0.064-1.443,0.11
						c-0.06,0.006-0.118,0.015-0.176,0.021c-7.848,0.828-15.126,4.271-20.802,9.909l-1.28,1.274l0.043,0.042
						c-5.606,6.176-9.025,14.369-9.025,23.345c0,8.978,3.419,17.171,9.025,23.346l-0.043,0.042l1.28,1.276
						c5.676,5.637,12.955,9.08,20.802,9.909c0.059,0.004,0.116,0.015,0.176,0.021c0.479,0.046,0.959,0.081,1.443,0.109
						c0.039,0.004,0.084,0.009,0.125,0.011c0.223,0.089,0.453,0.146,0.691,0.146c0.008,0,0.017,0,0.025,0
						c0.827-0.013,1.627-0.054,2.409-0.116c0.202-0.008,0.405-0.008,0.605-0.017c0.107-0.006,0.216-0.016,0.322-0.024
						c0.482-0.028,0.963-0.064,1.441-0.109c0.06-0.006,0.117-0.017,0.177-0.021c3.293-0.349,6.487-1.161,9.503-2.401
						L262.738,261.255z M281.127,231.019h-9.485c-0.224-5.419-1.451-10.603-3.538-15.29c1.783-1.094,3.475-2.35,5.062-3.767
						C277.771,217.073,280.712,223.713,281.127,231.019z M270.607,209.436c-1.296,1.144-2.673,2.166-4.117,3.069
						c-2.021-3.62-4.597-6.86-7.63-9.588C263.257,204.223,267.25,206.475,270.607,209.436z M251.893,202.395
						c4.693,2.912,8.53,7.032,11.274,11.916c-3.517,1.641-7.327,2.609-11.274,2.846V202.395z M251.893,220.753
						c4.512-0.24,8.865-1.339,12.871-3.22c1.808,4.142,2.877,8.71,3.089,13.485h-15.96V220.753z M241.13,202.92
						c-3.036,2.726-5.607,5.963-7.627,9.58c-1.442-0.9-2.817-1.921-4.113-3.064C232.744,206.479,236.736,204.226,241.13,202.92z
						 M226.836,211.962c1.578,1.414,3.275,2.671,5.052,3.76c-2.083,4.684-3.308,9.871-3.53,15.297h-9.488
						C219.287,223.713,222.229,217.073,226.836,211.962z M218.871,234.602h9.488c0.222,5.427,1.447,10.614,3.53,15.297
						c-1.777,1.093-3.474,2.345-5.052,3.762C222.229,248.547,219.287,241.909,218.871,234.602z M229.391,256.188
						c1.296-1.144,2.671-2.161,4.113-3.064c2.02,3.616,4.591,6.854,7.627,9.579C236.736,261.397,232.744,259.146,229.391,256.188z
						 M248.106,263.228c-4.699-2.91-8.54-7.027-11.279-11.913c3.512-1.642,7.328-2.613,11.279-2.85V263.228z M248.106,244.869
						c-4.515,0.242-8.873,1.342-12.881,3.226c-1.798-4.138-2.865-8.709-3.079-13.492h15.96V244.869z M248.106,231.019h-15.96
						c0.214-4.783,1.281-9.353,3.079-13.488c4.008,1.882,8.366,2.982,12.881,3.223V231.019z M248.106,217.157
						c-3.951-0.236-7.767-1.209-11.282-2.847c2.742-4.887,6.583-9.003,11.282-11.917V217.157z"/>
					<polygon style="fill:#FDC00F;" points="280.55,257.751 262.857,243.188 265.742,265.923 270.951,263.049 275.816,271.864 
						280.204,269.444 275.34,260.627 					"/>
				</g>
				<g>
					<polygon style="fill:#FFD310;" points="212.038,265.684 215.672,267.671 212.038,269.657 210.051,273.29 208.064,269.657 
						204.43,267.671 208.064,265.684 210.051,262.049 					"/>
					<polygon style="fill:#FFD310;" points="289.354,193.396 288.157,191.206 286.961,193.396 284.772,194.592 286.961,195.789 
						288.157,197.979 289.354,195.789 291.543,194.592 					"/>
					<polygon style="fill:#FFD310;" points="294.351,245.376 293.153,243.188 291.956,245.376 289.769,246.573 291.956,247.769 
						293.153,249.958 294.351,247.769 296.538,246.573 					"/>
					<polygon style="fill:#FFD310;" points="203.519,208.338 202.872,207.157 202.226,208.338 201.045,208.983 202.226,209.631 
						202.872,210.811 203.519,209.631 204.7,208.983 					"/>
				</g>
				<g>
					<polygon style="fill:#FFFFFF;" points="187.545,190.01 186.349,187.822 185.152,190.01 182.963,191.206 185.152,192.404 
						186.349,194.592 187.545,192.404 189.734,191.206 					"/>
					<polygon style="fill:#FFFFFF;" points="227.731,187.175 227.085,185.994 226.439,187.175 225.258,187.821 226.439,188.467 
						227.085,189.648 227.731,188.467 228.912,187.821 					"/>
					<polygon style="fill:#FFFFFF;" points="198.878,236.006 198.232,234.824 197.587,236.006 196.405,236.65 197.587,237.298 
						198.232,238.48 198.878,237.298 200.06,236.65 					"/>
					<polygon style="fill:#FFFFFF;" points="256.922,276.506 256.276,275.324 255.63,276.506 254.448,277.152 255.63,277.798 
						256.276,278.979 256.922,277.798 258.102,277.152 					"/>
					<polygon style="fill:#FFFFFF;" points="297.185,222.313 296.538,221.131 295.892,222.313 294.711,222.958 295.892,223.604 
						296.538,224.786 297.185,223.604 298.365,222.958 					"/>
				</g>
			</g>
		</g>
	</g>
	<g>
		
			<ellipse transform="matrix(0.1778 -0.9841 0.9841 0.1778 -57.3931 467.5792)" style="fill:none;stroke:#FFFFFF;stroke-width:2;stroke-linecap:round;stroke-miterlimit:10;stroke-dasharray:8.0234,8.0234;" cx="251.116" cy="268.135" rx="166" ry="165.999"/>
	</g>
	<path style="fill:#FDC00F;" d="M74.756,235.011c7.483,0,13.571-6.088,13.571-13.571s-6.088-13.571-13.571-13.571
		c-7.483,0-13.571,6.088-13.571,13.571S67.272,235.011,74.756,235.011z"/>
	<path style="fill:#FDC00F;" d="M92.316,208.727c7.483,0,13.571-6.088,13.571-13.571c0-7.483-6.088-13.571-13.571-13.571
		c-7.483,0-13.571,6.088-13.571,13.571C78.746,202.64,84.834,208.727,92.316,208.727z"/>
	<g>
		<path style="fill:#FDC00F;" d="M285.988,64.983h-5.463c-0.803-0.612-1.805-0.977-2.891-0.977c-1.086,0-2.088,0.364-2.891,0.977
			h-9.317c-0.804-0.612-1.806-0.977-2.892-0.977c-1.085,0-2.088,0.364-2.891,0.977h-9.318c-0.803-0.612-1.805-0.977-2.891-0.977
			c-1.086,0-2.088,0.364-2.891,0.977h-5.463c-2.097,0-3.798,1.701-3.798,3.798v12.57h-8.097c-0.94,0-1.848,0.35-2.545,0.979
			l-13.176,11.902c-0.797,0.72-1.252,1.744-1.252,2.818v24.688c0,2.097,1.701,3.798,3.798,3.798h1.729
			c1.571,4.458,5.814,7.667,10.804,7.667c4.99,0,9.233-3.209,10.806-7.667h25.806c1.571,4.458,5.813,7.667,10.803,7.667
			c4.99,0,9.234-3.209,10.807-7.667h1.223c2.098,0,3.798-1.701,3.798-3.798V68.781C289.786,66.685,288.086,64.983,285.988,64.983z"
			/>
		<g>
			<g>
				<g>
					<path style="fill:#FFFFFF;" d="M239.079,110.095V85.149h-11.892l-13.176,11.902v24.688h3.564c0-4.945,4.024-8.97,8.969-8.97
						c4.946,0,8.97,4.024,8.97,8.97h29.476c0-4.945,4.023-8.97,8.969-8.97c4.947,0,8.971,4.024,8.971,8.97h3.059v-2.767v-3.176
						v-5.702H239.079z"/>
				</g>
			</g>
			<path style="fill:#40A9D8;" d="M228.69,89.058h6.481v11.15h-17.252v-1.421L228.69,89.058z"/>
			<g>
				<g>
					<g>
						<path style="fill:#113243;" d="M234.212,121.739c0,4.233-3.433,7.667-7.668,7.667c-4.234,0-7.666-3.434-7.666-7.667
							c0-4.234,3.433-7.668,7.666-7.668C230.779,114.071,234.212,117.505,234.212,121.739z"/>
					</g>
				</g>
				<g>
					<g>
						<g>
							<g>
								<path style="fill:#40A9D8;" d="M231.844,121.739c0,2.927-2.373,5.299-5.299,5.299c-2.926,0-5.298-2.372-5.298-5.299
									c0-2.927,2.372-5.299,5.298-5.299C229.471,116.44,231.844,118.813,231.844,121.739z"/>
							</g>
						</g>
					</g>
					<g>
						<g>
							<path style="fill:#113243;" d="M230.341,121.739c0,2.097-1.699,3.796-3.796,3.796c-2.096,0-3.796-1.699-3.796-3.796
								c0-2.096,1.7-3.796,3.796-3.796C228.642,117.943,230.341,119.644,230.341,121.739z"/>
						</g>
					</g>
				</g>
			</g>
			<g>
				<g>
					<g>
						<path style="fill:#113243;" d="M281.628,121.739c0,4.233-3.434,7.667-7.669,7.667c-4.233,0-7.666-3.434-7.666-7.667
							c0-4.234,3.433-7.668,7.666-7.668C278.194,114.071,281.628,117.505,281.628,121.739z"/>
					</g>
				</g>
				<g>
					<g>
						<g>
							<g>
								<path style="fill:#40A9D8;" d="M279.259,121.739c0,2.927-2.372,5.299-5.3,5.299c-2.925,0-5.298-2.372-5.298-5.299
									c0-2.927,2.373-5.299,5.298-5.299C276.887,116.44,279.259,118.813,279.259,121.739z"/>
							</g>
						</g>
					</g>
					<g>
						<g>
							<path style="fill:#113243;" d="M277.757,121.739c0,2.097-1.7,3.796-3.798,3.796c-2.095,0-3.795-1.699-3.795-3.796
								c0-2.096,1.7-3.796,3.795-3.796C276.057,117.943,277.757,119.644,277.757,121.739z"/>
						</g>
					</g>
				</g>
			</g>
			<rect x="239.082" y="68.781" style="fill:#F29611;" width="46.906" height="41.725"/>
			<rect x="239.082" y="78.719" style="fill:#8F6C08;" width="46.906" height="31.787"/>
			<rect x="239.082" y="78.719" style="fill:#C2780E;" width="46.906" height="31.787"/>
			<g>
				<g>
					<path style="fill:#274554;" d="M247.436,111.072c-0.54,0-0.977-0.438-0.977-0.978V68.781c0-0.539,0.438-0.977,0.977-0.977
						c0.54,0,0.977,0.438,0.977,0.977v41.313C248.413,110.635,247.976,111.072,247.436,111.072z"/>
				</g>
				<g>
					<path style="fill:#274554;" d="M262.535,111.072c-0.538,0-0.977-0.438-0.977-0.978V68.781c0-0.539,0.439-0.977,0.977-0.977
						c0.539,0,0.977,0.438,0.977,0.977v41.313C263.512,110.635,263.074,111.072,262.535,111.072z"/>
				</g>
				<g>
					<path style="fill:#274554;" d="M277.635,111.072c-0.54,0-0.978-0.438-0.978-0.978V68.781c0-0.539,0.438-0.977,0.978-0.977
						c0.539,0,0.978,0.438,0.978,0.977v41.313C278.612,110.635,278.174,111.072,277.635,111.072z"/>
				</g>
			</g>
			<rect x="246.459" y="78.719" style="fill:#113243;" width="1.954" height="31.787"/>
			<rect x="261.559" y="78.719" style="fill:#113243;" width="1.953" height="31.787"/>
			<rect x="276.657" y="78.719" style="fill:#113243;" width="1.955" height="31.787"/>
			<g>
				<path style="fill:#40A9D8;" d="M282.076,117.943c0.541,1.154,0.853,2.438,0.853,3.796h3.059v-2.767v-1.029H282.076z"/>
				<path style="fill:#40A9D8;" d="M218.43,117.943h-4.418v3.796h3.564C217.575,120.381,217.887,119.098,218.43,117.943z"/>
				<path style="fill:#40A9D8;" d="M235.515,121.739h29.476c0-1.358,0.313-2.642,0.855-3.796H234.66
					C235.202,119.098,235.515,120.381,235.515,121.739z"/>
			</g>
		</g>
	</g>
	<g>
		<path style="fill:#FDC00F;stroke:#FDC00F;stroke-width:4;stroke-miterlimit:10;" d="M281.374,433.564v-7.32
			c0-0.972-0.195-1.901-0.553-2.748c0.352-0.843,0.39-1.789,0.1-2.661l-4.691-14.12l2.31-1.57c1.734-1.178,2.185-3.54,1.007-5.275
			l-12.91-19.006c-0.565-0.832-1.44-1.407-2.43-1.595c-0.99-0.191-2.013,0.021-2.847,0.588l-43.792,29.749
			c-0.833,0.565-1.407,1.44-1.597,2.43c-0.188,0.989,0.023,2.013,0.589,2.846l0.035,0.053c-0.565,0.922-0.735,2.078-0.368,3.185
			l0.917,2.757c-1.52,1.315-2.472,3.235-2.472,5.369v30.577c0,3.955,3.281,7.173,7.315,7.173h52.071
			c4.034,0,7.315-3.218,7.315-7.173v-7.319c2.343-1.181,3.953-3.609,3.953-6.406v-3.124
			C285.327,437.174,283.717,434.745,281.374,433.564z"/>
		<g>
			<g>
				
					<rect x="221.583" y="395.886" transform="matrix(0.8272 -0.5619 0.5619 0.8272 -186.0463 209.7843)" style="fill:#C2780E;" width="52.94" height="22.976"/>
				<path style="fill:#FFA52B;" d="M262.871,385.999l10.515,15.476l-40.15,27.275l-10.512-15.477L262.871,385.999 M263.166,384.462
					l-41.98,28.519l11.756,17.306l41.979-28.518L263.166,384.462L263.166,384.462z"/>
				<path style="fill:#FFA52B;" d="M262.871,385.999l10.515,15.476l-40.15,27.275l-10.512-15.477L262.871,385.999 M263.166,384.462
					l-41.98,28.519l11.756,17.306l41.979-28.518L263.166,384.462L263.166,384.462z"/>
				<g>
					<path style="fill:#FFA52B;" d="M264.853,386.946l-1.688-2.484l-2.486,1.688C261.614,387.522,263.481,387.88,264.853,386.946z"
						/>
					<path style="fill:#FFA52B;" d="M222.874,415.466c1.372-0.933,1.729-2.802,0.797-4.173l-2.485,1.688L222.874,415.466z"/>
					<path style="fill:#FFA52B;" d="M231.254,427.801l1.689,2.485l2.484-1.688C234.493,427.228,232.628,426.869,231.254,427.801z"/>
					<path style="fill:#FFA52B;" d="M272.435,403.455l2.485-1.687l-1.688-2.484C271.861,400.216,271.505,402.084,272.435,403.455z"
						/>
				</g>
				<path style="fill:#FDC00F;" d="M257.491,400.962c1.978,2.91-0.645,8.14-5.859,11.68c-5.211,3.543-11.04,4.054-13.017,1.144
					c-1.977-2.909,0.646-8.139,5.86-11.681C249.686,398.565,255.513,398.052,257.491,400.962z"/>
				<g>
					<path style="fill:#23A0BF;" d="M234.261,416.745c0.56,0.827,0.347,1.954-0.482,2.516c-0.828,0.564-1.955,0.349-2.519-0.479
						c-0.561-0.828-0.345-1.955,0.481-2.52C232.57,415.702,233.699,415.916,234.261,416.745z"/>
					<path style="fill:#FDC00F;" d="M264.846,395.967c0.563,0.829,0.347,1.956-0.481,2.518c-0.827,0.564-1.955,0.348-2.517-0.479
						c-0.564-0.828-0.349-1.957,0.48-2.518C263.155,394.924,264.282,395.14,264.846,395.967z"/>
				</g>
			</g>
			<g>
				
					<rect x="222.104" y="407.988" transform="matrix(0.949 -0.3153 0.3153 0.949 -119.5822 99.7728)" style="fill:#F29611;" width="52.94" height="22.976"/>
				<path style="fill:#FFA52B;" d="M268.655,402.947l5.9,17.754l-46.061,15.303l-5.899-17.752L268.655,402.947 M269.355,401.547
					l-48.16,16.003l6.598,19.853l48.161-16.001L269.355,401.547L269.355,401.547z"/>
				<path style="fill:#FDC00F;" d="M268.655,402.947l5.9,17.754l-46.061,15.303l-5.899-17.752L268.655,402.947 M269.355,401.547
					l-48.16,16.003l6.598,19.853l48.161-16.001L269.355,401.547L269.355,401.547z"/>
				<g>
					<path style="fill:#FDC00F;" d="M270.304,404.398l-0.948-2.852l-2.848,0.948C267.03,404.069,268.729,404.921,270.304,404.398z"
						/>
					<path style="fill:#FDC00F;" d="M222.143,420.399c1.574-0.523,2.427-2.222,1.903-3.797l-2.851,0.947L222.143,420.399z"/>
					<path style="fill:#FFA52B;" d="M226.845,434.553l0.948,2.851l2.85-0.946C230.12,434.883,228.419,434.031,226.845,434.553z"/>
					<path style="fill:#FDC00F;" d="M273.102,422.349l2.853-0.946l-0.948-2.852C273.432,419.074,272.581,420.774,273.102,422.349z"
						/>
				</g>
				<path style="fill:#FDC00F;" d="M259.403,415.878c1.109,3.339-2.839,7.655-8.82,9.642c-5.98,1.988-11.728,0.893-12.837-2.446
					c-1.11-3.337,2.841-7.655,8.82-9.644C252.544,411.443,258.295,412.539,259.403,415.878z"/>
				<g>
					<path style="fill:#23A0BF;" d="M232.75,424.733c0.314,0.949-0.198,1.976-1.149,2.292c-0.951,0.315-1.976-0.198-2.291-1.148
						c-0.314-0.951,0.198-1.977,1.148-2.291C231.409,423.27,232.435,423.784,232.75,424.733z"/>
					<path style="fill:#FDC00F;" d="M267.839,413.074c0.315,0.95-0.198,1.976-1.149,2.292c-0.949,0.316-1.975-0.198-2.292-1.149
						c-0.313-0.949,0.2-1.975,1.149-2.29C266.498,411.61,267.523,412.126,267.839,413.074z"/>
				</g>
			</g>
			<path style="fill:#113243;" d="M277.576,456.82c0,1.864-1.574,3.375-3.518,3.375h-52.071c-1.943,0-3.517-1.511-3.517-3.375
				v-30.577c0-1.864,1.574-3.373,3.517-3.373h52.071c1.943,0,3.518,1.509,3.518,3.373V456.82z"/>
			<path style="fill:#FFFFFF;" d="M274.073,428.784c0,1.033-0.836,1.868-1.869,1.868h-9.488c-1.033,0-1.868-0.835-1.868-1.868l0,0
				c0-1.031,0.835-1.868,1.868-1.868h9.488C273.237,426.916,274.073,427.753,274.073,428.784L274.073,428.784z"/>
			<path style="fill:#40A9D8;" d="M281.53,443.095c0,1.861-1.512,3.373-3.375,3.373h-21.521c-1.863,0-3.375-1.512-3.375-3.373
				v-3.124c0-1.862,1.512-3.373,3.375-3.373h21.521c1.863,0,3.375,1.511,3.375,3.373V443.095z"/>
			<path style="fill:#FDC00F;" d="M261.093,441.532c0,1.625-1.316,2.943-2.942,2.943c-1.625,0-2.943-1.318-2.943-2.943
				s1.318-2.943,2.943-2.943C259.776,438.589,261.093,439.907,261.093,441.532z"/>
		</g>
	</g>
	<g>
		<path style="fill:#FDC00F;stroke:#FDC00F;stroke-width:9;stroke-miterlimit:10;" d="M446.749,229.844h-63.564
			c-5.15,0-9.341,4.19-9.341,9.342v30.829c0,5.15,4.19,9.341,9.341,9.341h63.564c5.151,0,9.341-4.19,9.341-9.341v-30.829
			C456.09,234.034,451.9,229.844,446.749,229.844z"/>
		<g>
			<g>
				<path style="fill:#40A9D8;" d="M452.292,270.015c0,3.061-2.482,5.543-5.543,5.543h-63.564c-3.063,0-5.543-2.482-5.543-5.543
					v-30.829c0-3.063,2.48-5.544,5.543-5.544h63.564c3.061,0,5.543,2.481,5.543,5.544V270.015z"/>
				<g>
					<path style="fill:#113243;" d="M447.497,266.605c0,2.882-2.336,5.221-5.219,5.221s-5.22-2.339-5.22-5.221
						c0-2.882,2.337-5.22,5.22-5.22S447.497,263.724,447.497,266.605z"/>
					<path style="fill:#FDC00F;" d="M439.255,266.605c0,2.882-2.335,5.221-5.22,5.221c-2.881,0-5.219-2.339-5.219-5.221
						c0-2.882,2.338-5.22,5.219-5.22C436.92,261.386,439.255,263.724,439.255,266.605z"/>
				</g>
				
					<text transform="matrix(1 0 0 1 382.9384 271.8232)" style="fill:#FFFFFF; font-family:'BebasNeueRegular'; font-size:8.6104px;">CARDS</text>
			</g>
			<text transform="matrix(1 0 0 1 386.3828 259.1875)" style="fill:#FFFFFF; font-family:'BebasNeueRegular'; font-size:9.424px;">000 000 000 000 00</text>
		</g>
	</g>
	<g>
		<path style="fill:#FDC00F;stroke:#FDC00F;stroke-width:4;stroke-miterlimit:10;" d="M121.379,291.707c0-0.073,0-0.147-0.001-0.221
			c1.449,0.323,3.085,0.147,4.442-0.507l0.086-0.042c0.233-0.112,0.454-0.249,0.659-0.406l0.076-0.059
			c1.257-0.966,2.097-2.281,2.41-3.756c1.189,0.851,2.817,1.125,4.288,0.621c2.457-0.852,3.767-3.542,2.92-6.003
			c-1.521-4.406-4.023-7.324-7.437-8.676c-1.274-0.503-2.634-0.759-4.041-0.759c-2.902,0-5.086,1.085-5.524,1.318
			c-0.033,0.017-0.064,0.035-0.097,0.054c-1.124,0.642-2.057,1.467-2.771,2.441c-0.041,0.008-0.082,0.017-0.122,0.024
			c-5.447-7.815-14.688-13.122-25.011-14.447c5.343-1.823,9.202-6.882,9.202-12.836c0-7.482-6.088-13.569-13.571-13.569
			c-7.483,0-13.571,6.087-13.571,13.569c0,5.831,3.703,10.8,8.876,12.717c-1.851,0.185-3.68,0.481-5.474,0.921
			c-2.218-3.579-6.125-6.598-11.894-6.598c-1.709,0-3.53,0.273-5.411,0.813c-1.641,0.472-2.793,1.974-2.777,3.68
			c0.017,1.708,1.143,3.186,2.793,3.626c0.395,0.118,1.233,0.542,1.475,1.024c0.153,0.306,0.075,0.788-0.034,1.175
			c-0.804,1.374-1.575,3.523-1.323,5.813c-3.622,3.659-6.162,7.95-7.482,12.626h-1.279c-3.793,0-6.878,3.086-6.878,6.878v8.672
			c0,3.792,3.085,6.878,6.878,6.878h4.683c1.866,2.919,4.281,5.573,7.121,7.823l-1.377,8.722c-0.173,1.097,0.142,2.215,0.864,3.06
			c0.722,0.845,1.777,1.33,2.887,1.33h10.377c2.966,0,5.359-2.167,6.075-5.441c1.969,0.234,3.959,0.327,5.962,0.266l-0.125,0.786
			c-0.173,1.097,0.143,2.215,0.864,3.06c0.721,0.845,1.776,1.33,2.887,1.33h10.378c3.108,0,5.586-2.379,6.179-6.004l0.986-6.15
			C116.615,309.652,121.379,300.889,121.379,291.707z"/>
		<g>
			<g>
				<g>
					<path style="fill:#40A9D8;" d="M96.661,248.455c0,5.398-4.376,9.773-9.773,9.773c-5.397,0-9.773-4.375-9.773-9.773
						c0-5.396,4.376-9.772,9.773-9.772C92.285,238.683,96.661,243.059,96.661,248.455z"/>
					<path style="fill:#C2E9FA;" d="M86.888,240.225c4.539,0,8.232,3.692,8.232,8.23c0,4.54-3.692,8.233-8.232,8.233
						c-4.539,0-8.231-3.693-8.231-8.233C78.656,243.917,82.349,240.225,86.888,240.225 M86.888,238.683
						c-5.397,0-9.773,4.376-9.773,9.772c0,5.398,4.376,9.773,9.773,9.773c5.397,0,9.773-4.375,9.773-9.773
						C96.661,243.059,92.285,238.683,86.888,238.683L86.888,238.683z"/>
				</g>
				<path style="fill:#C2E9FA;" d="M92.316,248.455c0,2.999-2.43,5.429-5.429,5.429c-2.998,0-5.428-2.43-5.428-5.429
					c0-2.997,2.43-5.428,5.428-5.428C89.886,243.027,92.316,245.458,92.316,248.455z"/>
			</g>
			<g>
				<g>
					
						<ellipse transform="matrix(0.2298 -0.9732 0.9732 0.2298 -157.9353 243.319)" style="fill:#40A9D8;" cx="74.756" cy="221.439" rx="9.773" ry="9.773"/>
					<path style="fill:#C2E9FA;" d="M74.756,213.208c4.539,0,8.231,3.692,8.231,8.232c0,4.539-3.693,8.231-8.231,8.231
						c-4.54,0-8.232-3.692-8.232-8.231C66.523,216.9,70.216,213.208,74.756,213.208 M74.756,211.666
						c-5.398,0-9.773,4.376-9.773,9.773c0,5.397,4.375,9.773,9.773,9.773c5.397,0,9.773-4.376,9.773-9.773
						C84.529,216.042,80.153,211.666,74.756,211.666L74.756,211.666z"/>
				</g>
				<path style="fill:#C2E9FA;" d="M80.185,221.439c0,2.998-2.431,5.429-5.429,5.429c-2.998,0-5.429-2.431-5.429-5.429
					c0-2.998,2.431-5.429,5.429-5.429C77.753,216.011,80.185,218.441,80.185,221.439z"/>
			</g>
			<g>
				<g>
					
						<ellipse transform="matrix(0.9263 -0.3768 0.3768 0.9263 -66.73 49.1682)" style="fill:#40A9D8;" cx="92.316" cy="195.156" rx="9.773" ry="9.773"/>
					<path style="fill:#C2E9FA;" d="M92.316,186.925c4.54,0,8.232,3.693,8.232,8.231c0,4.54-3.692,8.231-8.232,8.231
						c-4.539,0-8.231-3.691-8.231-8.231C84.085,190.618,87.778,186.925,92.316,186.925 M92.316,185.383
						c-5.397,0-9.773,4.376-9.773,9.773c0,5.398,4.376,9.773,9.773,9.773c5.397,0,9.773-4.375,9.773-9.773
						C102.09,189.759,97.714,185.383,92.316,185.383L92.316,185.383z"/>
				</g>
				<path style="fill:#C2E9FA;" d="M97.745,195.156c0,2.999-2.43,5.429-5.429,5.429c-2.998,0-5.428-2.43-5.428-5.429
					c0-2.997,2.43-5.429,5.428-5.429C95.315,189.727,97.745,192.159,97.745,195.156z"/>
			</g>
			<g>
				<g>
					<g>
						<g>
							<g>
								<path style="fill:#FFFFFF;" d="M61.933,299.802c0,1.701-1.378,3.08-3.08,3.08h-8.064c-1.701,0-3.08-1.379-3.08-3.08v-8.672
									c0-1.701,1.379-3.08,3.08-3.08h8.064c1.702,0,3.08,1.379,3.08,3.08V299.802z"/>
							</g>
						</g>
					</g>
					<path style="fill:#81C1CA;" d="M47.708,296.844v2.958c0,1.701,1.379,3.08,3.08,3.08h8.064c1.702,0,3.08-1.379,3.08-3.08v-2.958
						H47.708z"/>
					<g>
						<path style="fill:#FFFFFF;" d="M103.803,321.081l0.011-0.071l0,0l0,0l1.858-11.595H93.284l-2.276,14.401h10.378
							C103.271,323.816,103.734,321.505,103.803,321.081z"/>
					</g>
					<g>
						<g>
							<g>
								<g>
									<g>
										<path style="fill:#FFFFFF;" d="M77.762,321.081l0.011-0.071l0,0l0,0l1.039-6.671l-11.571-4.924l-2.275,14.401h10.377
											C77.229,323.816,77.692,321.505,77.762,321.081z"/>
									</g>
								</g>
							</g>
							<path style="fill:#81C1CA;" d="M66.175,316.159c3.516,2.193,7.449,3.778,11.623,4.685l1.013-6.506l-11.571-4.924
								L66.175,316.159z"/>
						</g>
						<path style="fill:#81C1CA;" d="M91.389,321.4c4.65-0.607,9.07-2.03,13.034-4.186l1.25-7.8H93.284L91.389,321.4z"/>
					</g>
					<g>
						<g>
							<ellipse style="fill:#FFFFFF;" cx="86.201" cy="291.707" rx="31.38" ry="26.951"/>
						</g>
					</g>
					<g>
						<g>
							<path style="fill:#113243;" d="M94.607,270.143c-0.103,0-0.208-0.014-0.314-0.04c-2.61-0.688-5.334-1.036-8.093-1.036
								c-2.293,0.001-4.571,0.243-6.772,0.719c-0.665,0.143-1.32-0.278-1.464-0.943c-0.144-0.665,0.278-1.321,0.943-1.465
								c2.372-0.513,4.825-0.774,7.293-0.774l0,0c2.971,0,5.904,0.375,8.72,1.115c0.658,0.173,1.052,0.848,0.878,1.505
								C95.653,269.776,95.154,270.143,94.607,270.143z"/>
						</g>
					</g>
					<g>
						<g>
							<g>
								<g>
									<path style="fill:#81C1CA;" d="M122.858,287.851c-0.956,0-2.03-0.441-2.711-1.771c-0.21-0.34-1.517-2.564-1.6-4.922
										c-3.032-0.104-5.716,3.09-5.743,3.123c-0.328,0.392-0.909,0.445-1.301,0.119c-0.393-0.325-0.447-0.907-0.122-1.299
										c0.134-0.163,3.354-3.986,7.336-3.786c0.02,0.001,0.037,0.003,0.057,0.003c0.358-1.168,1.122-2.092,2.271-2.748
										l0.028-0.015c0.127-0.067,3.153-1.629,6.353-0.363c2.336,0.924,4.1,3.07,5.243,6.383c0.166,0.482-0.09,1.008-0.572,1.175
										c-0.482,0.165-1.009-0.091-1.175-0.572c-0.956-2.77-2.355-4.539-4.159-5.26c-2.314-0.926-4.635,0.176-4.82,0.268
										c-0.673,0.389-1.118,0.892-1.354,1.53c1.445,0.564,2.755,1.707,3.915,3.418c0.211,0.26,0.996,1.311,0.873,2.527
										c-0.07,0.704-0.434,1.328-1.049,1.801l-0.076,0.059l-0.086,0.042C123.809,287.733,123.35,287.851,122.858,287.851z
										 M120.443,281.689c0.251,1.767,1.278,3.424,1.293,3.446l0.044,0.08c0.458,0.916,1.105,0.863,1.503,0.715
										c0.206-0.186,0.247-0.347,0.257-0.455c0.047-0.467-0.368-1.059-0.473-1.18l-0.068-0.09
										C122.205,283.025,121.351,282.185,120.443,281.689z"/>
								</g>
							</g>
						</g>
					</g>
					<path style="fill:#113243;" d="M67.061,282.427c0,1.996-0.938,3.614-2.096,3.614c-1.158,0-2.097-1.618-2.097-3.614
						c0-1.997,0.939-3.616,2.097-3.616C66.123,278.81,67.061,280.43,67.061,282.427z"/>
					<g>
						<g>
							<path style="fill:#FFFFFF;" d="M74.756,266.904c0,0-2.672-10.284-14.292-6.945c0,0,5.992,1.594,3.873,7.479
								c0,0-2.538,3.606,0.267,6.278C64.604,273.717,71.683,274.385,74.756,266.904z"/>
						</g>
						<path style="fill:#81C1CA;" d="M64.337,267.439c0,0-2.538,3.606,0.267,6.278c0,0,2.059,0.191,4.439-0.803
							c1.209-14.471-8.579-12.955-8.579-12.955S66.456,261.553,64.337,267.439z"/>
					</g>
					<path style="fill:#81C1CA;" d="M69.513,289.66c0,0.891-0.721,1.611-1.611,1.611h-5.875c-0.889,0-1.61-0.721-1.61-1.611l0,0
						c0-0.889,0.721-1.61,1.61-1.61h5.875C68.792,288.05,69.513,288.772,69.513,289.66L69.513,289.66z"/>
				</g>
				<g>
					<g>
						<path style="fill:#81C1CA;" d="M84.963,282.582v-1.431h2.476v1.431c2.146,0.439,3.246,2.091,3.246,4.704v0.604h-2.861v-0.798
							c0-1.376-0.55-1.898-1.512-1.898c-0.963,0-1.513,0.522-1.513,1.898c0,3.961,5.914,4.153,5.914,9.655
							c0,2.612-1.127,4.292-3.273,4.733v1.401h-2.476v-1.401c-2.173-0.44-3.273-2.12-3.273-4.733v-1.32h2.86v1.513
							c0,1.376,0.605,1.871,1.568,1.871c0.963,0,1.568-0.495,1.568-1.871c0-3.961-5.914-4.152-5.914-9.654
							C81.771,284.699,82.845,283.049,84.963,282.582z"/>
					</g>
				</g>
			</g>
		</g>
	</g>
	<g>
		<path style="fill:#FDC00F;" d="M162.342,358.137h-5.1v-5.03c0-9.689-7.883-17.573-17.574-17.573c-0.96,0-1.93,0.081-2.892,0.242
			c-0.962-0.161-1.932-0.242-2.892-0.242c-9.69,0-17.574,7.884-17.574,17.573v5.03h-3.068c-2.097,0-3.798,1.7-3.798,3.798v56.567
			c0,2.097,1.701,3.798,3.798,3.798h49.099c2.097,0,3.797-1.701,3.797-3.798v-56.567
			C166.14,359.837,164.439,358.137,162.342,358.137z M131.588,358.137v-5.03c0-3.374,2.09-6.347,5.189-7.531
			c3.098,1.185,5.188,4.157,5.188,7.531v5.03H131.588z"/>
		<g>
			<g>
				<path style="fill:#C2780E;" d="M152.496,368.627c-0.524,0-0.95-0.425-0.95-0.949v-14.571c0-6.549-5.328-11.878-11.877-11.878
					c-6.55,0-11.878,5.329-11.878,11.878v14.571c0,0.524-0.424,0.949-0.949,0.949c-0.524,0-0.949-0.425-0.949-0.949v-14.571
					c0-7.597,6.18-13.776,13.776-13.776c7.596,0,13.776,6.18,13.776,13.776v14.571C153.445,368.202,153.02,368.627,152.496,368.627z
					"/>
			</g>
			<g>
				<rect x="154.527" y="361.935" style="fill:#40A9D8;" width="7.815" height="56.567"/>
			</g>
			<g>
				<rect x="113.243" y="361.935" style="fill:#C2E9FA;" width="41.284" height="56.567"/>
			</g>
			<g>
				<path style="fill:#F29611;" d="M146.712,368.627c-0.524,0-0.949-0.425-0.949-0.949v-14.571c0-6.549-5.329-11.878-11.878-11.878
					c-6.549,0-11.878,5.329-11.878,11.878v14.571c0,0.524-0.425,0.949-0.948,0.949c-0.525,0-0.95-0.425-0.95-0.949v-14.571
					c0-7.597,6.18-13.776,13.776-13.776c7.597,0,13.776,6.18,13.776,13.776v14.571C147.661,368.202,147.236,368.627,146.712,368.627
					z"/>
			</g>
			<g>
				<polygon style="fill:#3387AD;" points="154.527,418.502 158.434,411.987 162.342,418.502 				"/>
			</g>
			<g>
				<g>
					<path style="fill:#3387AD;" d="M126.027,384.869c0-2.025,1.04-3.148,2.979-3.148c1.94,0,2.98,1.123,2.98,3.148v6.466
						c0,2.025-1.04,3.149-2.98,3.149c-1.939,0-2.979-1.124-2.979-3.149V384.869z M127.995,391.477c0,0.871,0.365,1.236,1.012,1.236
						c0.619,0,1.013-0.365,1.013-1.236v-6.748c0-0.872-0.394-1.237-1.013-1.237c-0.646,0-1.012,0.365-1.012,1.237V391.477z
						 M136.767,381.861h1.828l-7.76,19.68h-1.828L136.767,381.861z M135.782,392.066c0-2.023,1.04-3.149,2.98-3.149
						c1.939,0,2.98,1.126,2.98,3.149v6.467c0,2.023-1.041,3.147-2.98,3.147c-1.94,0-2.98-1.124-2.98-3.147V392.066z
						 M137.751,398.673c0,0.872,0.365,1.237,1.012,1.237c0.619,0,1.012-0.365,1.012-1.237v-6.747c0-0.871-0.393-1.237-1.012-1.237
						c-0.647,0-1.012,0.366-1.012,1.237V398.673z"/>
				</g>
			</g>
		</g>
	</g>
	<g>
		<path style="fill:#FDC00F;" d="M384.182,385.296c-0.412-0.743-1.059-1.325-1.841-1.656l-19.228-8.149l13.885-22.097
			c0.735-1.17,0.777-2.647,0.108-3.856c-0.668-1.21-1.941-1.961-3.323-1.961h-2.815v-16.432c0-2.098-1.7-3.798-3.798-3.798h-16.055
			c-2.098,0-3.798,1.7-3.798,3.798v16.432h-2.815c-1.382,0-2.655,0.751-3.323,1.961c-0.669,1.209-0.627,2.686,0.108,3.856
			l13.885,22.097l-19.228,8.149c-0.781,0.331-1.429,0.913-1.841,1.656l-5.897,10.643c-1.009,1.821-0.363,4.115,1.446,5.143
			l3.794,2.154l-0.107,9.386c-0.016,1.377,0.717,2.656,1.912,3.339l22.005,12.586c0.584,0.334,1.235,0.501,1.886,0.501
			c0.65,0,1.302-0.167,1.885-0.501l22.005-12.585c1.196-0.684,1.929-1.963,1.913-3.34l-0.106-9.386l3.794-2.154
			c1.81-1.028,2.455-3.322,1.446-5.143L384.182,385.296z"/>
		<g>
			<g>
				<polygon style="fill:#9B600B;" points="359.143,377.932 337.426,387.136 337.426,396.197 359.143,400.08 				"/>
				<polygon style="fill:#F29611;" points="359.143,377.932 380.859,387.136 380.859,396.197 359.143,400.08 				"/>
				<g>
					<polygon style="fill:#C2780E;" points="359.143,400.08 359.143,425.25 337.138,412.665 337.426,387.136 					"/>
					<polygon style="fill:#113243;" points="343.912,416.54 349.209,419.568 349.209,394.159 343.912,391.002 					"/>
					<polygon style="fill:#F29611;" points="337.426,387.136 331.528,397.779 353.102,410.033 359.143,400.08 					"/>
				</g>
				<g>
					<polygon style="fill:#9B600B;" points="359.143,400.08 359.143,425.25 381.147,412.665 380.859,387.136 					"/>
					<polygon style="fill:#113243;" points="369.077,419.568 374.374,416.538 374.374,391.002 369.077,394.158 					"/>
					<polygon style="fill:#C2780E;" points="380.859,387.136 386.757,397.779 365.184,410.033 359.143,400.08 					"/>
				</g>
			</g>
			<polygon style="fill:#113243;" points="367.17,351.374 367.17,331.145 351.115,331.145 351.115,351.374 344.502,351.374 
				359.143,374.674 373.783,351.374 			"/>
			<g>
				<g>
					<path style="fill:#FFFFFF;" d="M358.168,350.501c0,2.323-1.22,3.477-2.646,3.477c-1.373,0-2.56-1.103-2.577-3.323
						c0-2.205,1.204-3.441,2.663-3.441C357.151,347.213,358.168,348.399,358.168,350.501z M354.132,350.603
						c-0.032,1.406,0.492,2.476,1.426,2.476c0.982,0,1.423-1.052,1.423-2.51c0-1.339-0.39-2.459-1.423-2.459
						C354.624,348.11,354.132,349.213,354.132,350.603z M355.421,358.605l6.477-11.393h0.95l-6.479,11.393H355.421z M365.34,355.063
						c0,2.323-1.22,3.476-2.629,3.476c-1.372,0-2.559-1.103-2.576-3.307c0-2.221,1.204-3.458,2.662-3.458
						C364.339,351.773,365.34,352.96,365.34,355.063z M361.305,355.164c-0.018,1.407,0.525,2.475,1.441,2.475
						c0.983,0,1.425-1.052,1.425-2.509c0-1.341-0.391-2.459-1.425-2.459C361.813,352.672,361.305,353.773,361.305,355.164z"/>
				</g>
			</g>
		</g>
	</g>
	<g>
		<path style="fill:#FDC00F;" d="M332.892,145.061c-0.773,1.33-1.223,2.868-1.223,4.514c0,4.975,4.048,9.021,9.022,9.021
			c4.974,0,9.02-4.047,9.02-9.021c0-1.646-0.449-3.184-1.222-4.514h4.81c-0.772,1.33-1.223,2.868-1.223,4.514
			c0,4.975,4.048,9.021,9.021,9.021c4.974,0,9.021-4.047,9.021-9.021c0-1.646-0.45-3.184-1.223-4.514h2.162
			c2.991,0,5.568-2.232,5.992-5.192l4.355-30.277h10.06c3.339,0,6.055-2.717,6.055-6.055c0-3.339-2.716-6.055-6.055-6.055h-15.306
			c-2.991,0-5.567,2.232-5.992,5.191l-0.325,2.254h-42.103c-1.096,0-2.137,0.472-2.858,1.296c-0.721,0.823-1.051,1.918-0.906,3.004
			l3.201,24.014c-2.436,0.784-4.203,3.072-4.203,5.766c0,3.339,2.716,6.055,6.055,6.055H332.892z"/>
		<g>
			<path style="fill:#113243;" d="M391.465,101.279h-15.306c-1.122,0-2.074,0.824-2.233,1.935l-0.793,5.511h-45.393l3.736,28.023
				h-2.448c-1.246,0-2.257,1.013-2.257,2.258c0,1.247,1.011,2.257,2.257,2.257h42.029c1.122,0,2.074-0.824,2.233-1.935l4.823-33.535
				h13.352c1.246,0,2.257-1.01,2.257-2.257C393.722,102.29,392.711,101.279,391.465,101.279z M331.615,120.72h7.946v8.654h-6.793
				L331.615,120.72z M341.818,120.72h7.945v8.654h-7.945V120.72z M370.163,129.374h-7.938v-8.654h9.182L370.163,129.374z
				 M352.021,136.748v-5.117h7.946v5.117H352.021z M362.226,136.748v-5.117h7.612l-0.736,5.117H362.226z M359.968,129.374h-7.946
				v-8.654h7.946V129.374z M352.021,118.463v-7.481h7.946v7.481H352.021z M349.764,118.463h-7.945v-7.481h7.945V118.463z
				 M349.764,131.631v5.117h-7.945v-5.117H349.764z M371.731,118.463h-9.506v-7.481h10.582L371.731,118.463z M339.561,110.981v7.481
				h-8.247l-0.997-7.481H339.561z M333.07,131.631h6.491v5.117h-5.809L333.07,131.631z"/>
			<path style="fill:#113243;" d="M340.69,144.351c-2.885,0-5.224,2.338-5.224,5.224c0,2.886,2.339,5.224,5.224,5.224
				c2.884,0,5.222-2.338,5.222-5.224C345.912,146.689,343.574,144.351,340.69,144.351z"/>
			<path style="fill:#113243;" d="M361.097,144.351c-2.885,0-5.224,2.338-5.224,5.224c0,2.886,2.339,5.224,5.224,5.224
				c2.884,0,5.223-2.338,5.223-5.224C366.319,146.689,363.98,144.351,361.097,144.351z"/>
		</g>
	</g>
	<g>
		<path style="fill:#FDC00F;stroke:#FDC00F;stroke-width:4;stroke-miterlimit:10;" d="M104.502,128.835v29.744
			c0,2.097,1.701,3.798,3.798,3.798h40.509c2.097,0,3.798-1.701,3.798-3.798v-29.744c1.7-0.378,2.971-1.895,2.971-3.708v-12.419
			c0-2.097-1.7-3.798-3.797-3.798h-4.714c0.399-4.083-2.265-7.789-3.196-8.944c-1.765-2.75-4.521-6.266-8.393-6.266
			c-3.378,0-5.52,2.395-6.924,5.619c-1.403-3.225-3.545-5.619-6.923-5.619c-3.871,0-6.628,3.516-8.393,6.266
			c-0.93,1.155-3.595,4.861-3.195,8.944h-4.714c-2.097,0-3.798,1.701-3.798,3.798v12.419
			C101.531,126.94,102.802,128.457,104.502,128.835z"/>
		<g>
			<rect x="108.3" y="116.891" style="fill:#FFFFFF;" width="40.509" height="41.688"/>
			<g>
				<path style="fill:#113243;" d="M119.291,105.857c4.382-10.274,8.297,7.746,8.297,7.746s-1.628-26.63-11.271-11.403
					c0,0-10.483,12.37,11.271,11.403C116.207,111.759,119.291,105.857,119.291,105.857z"/>
				<path style="fill:#113243;" d="M137.818,105.857c-4.382-10.274-8.298,7.746-8.298,7.746s1.629-26.63,11.271-11.403
					c0,0,10.483,12.37-11.271,11.403C140.902,111.759,137.818,105.857,137.818,105.857z"/>
			</g>
			<path style="fill:#113243;" d="M131.126,112.146c0,1.421-1.151,2.571-2.571,2.571l0,0c-1.419,0-2.571-1.15-2.571-2.571v-0.453
				c0-1.42,1.152-2.571,2.571-2.571l0,0c1.419,0,2.571,1.151,2.571,2.571V112.146z"/>
			<rect x="124.252" y="121.616" style="fill:#113243;" width="8.604" height="36.963"/>
			<g>
				<rect x="105.778" y="113.158" style="fill:#66B4DA;" width="45.553" height="11.519"/>
				<path style="fill:#FDC00F;" d="M150.831,113.658v10.519h-44.553v-10.519H150.831 M151.831,112.658h-1h-44.553h-1v1v10.519v1h1
					h44.553h1v-1v-10.519V112.658L151.831,112.658z"/>
			</g>
			<g>
				<rect x="123.752" y="113.158" style="fill:#113243;" width="9.604" height="11.519"/>
				<path style="fill:#FDC00F;" d="M132.857,113.658v10.519h-8.605v-10.519H132.857 M133.857,112.658h-1h-8.605h-1v1v10.519v1h1
					h8.605h1v-1v-10.519V112.658L133.857,112.658z"/>
			</g>
		</g>
	</g>
	
		<text transform="matrix(1 0 0 1 121.0322 45.2959)" style="fill:#FFFFFF; font-family:'BebasNeueRegular'; font-size:30.1896px; letter-spacing:3;">E-COMMERCE CONCEPT</text>
</g>
<g id="DESIGNED_BY_FREEPIK">
	<g>
		<g>
			<path style="fill:#FFFFFF;" d="M178.621,481.012c-0.257,0-0.449,0.086-0.592,0.258c-0.133,0.182-0.2,0.44-0.2,0.783v2.482
				c-0.315-0.343-0.641-0.602-0.975-0.772c-0.335-0.163-0.736-0.248-1.223-0.248c-0.831,0-1.509,0.295-2.025,0.878
				c-0.506,0.593-0.764,1.404-0.764,2.455c0,0.496,0.067,0.955,0.191,1.384c0.133,0.43,0.315,0.803,0.572,1.117
				c0.249,0.315,0.545,0.554,0.889,0.727c0.334,0.172,0.707,0.258,1.108,0.258c0.305,0,0.591-0.048,0.839-0.134
				c0.258-0.076,0.497-0.2,0.716-0.362c0.22-0.162,0.44-0.373,0.669-0.631v0.162c0,0.307,0.076,0.545,0.219,0.717
				c0.152,0.162,0.344,0.248,0.573,0.248c0.23,0,0.42-0.086,0.573-0.239c0.143-0.162,0.219-0.4,0.219-0.726v-7.401
				c0-0.315-0.066-0.554-0.21-0.716C179.069,481.089,178.879,481.012,178.621,481.012z M177.514,488.099
				c-0.144,0.314-0.335,0.554-0.583,0.706c-0.239,0.153-0.516,0.23-0.803,0.23c-0.295,0-0.563-0.086-0.811-0.249
				c-0.248-0.162-0.439-0.4-0.582-0.716c-0.134-0.324-0.211-0.706-0.211-1.165c0-0.43,0.067-0.811,0.201-1.137
				c0.133-0.324,0.325-0.572,0.564-0.744c0.239-0.173,0.515-0.268,0.821-0.268c0.296,0,0.573,0.086,0.822,0.257
				c0.248,0.173,0.439,0.421,0.583,0.736c0.152,0.324,0.219,0.707,0.219,1.155C177.732,487.382,177.665,487.773,177.514,488.099z"/>
			<path style="fill:#FFFFFF;" d="M186.251,487.144c0.239-0.124,0.363-0.401,0.363-0.822c0-0.458-0.124-0.897-0.354-1.336
				c-0.229-0.44-0.583-0.803-1.061-1.079c-0.467-0.277-1.031-0.411-1.681-0.411c-0.505,0-0.964,0.076-1.374,0.238
				c-0.421,0.162-0.765,0.401-1.05,0.697c-0.278,0.307-0.497,0.669-0.64,1.098c-0.153,0.421-0.229,0.88-0.229,1.376
				c0,1.05,0.305,1.892,0.897,2.502c0.602,0.611,1.442,0.927,2.522,0.927c0.467,0,0.888-0.067,1.251-0.191
				c0.363-0.124,0.659-0.277,0.898-0.458c0.239-0.191,0.419-0.382,0.544-0.583c0.114-0.21,0.172-0.381,0.172-0.534
				c0-0.173-0.048-0.306-0.153-0.401c-0.115-0.096-0.248-0.143-0.421-0.143c-0.162,0-0.286,0.038-0.372,0.115
				c-0.211,0.19-0.382,0.354-0.506,0.468c-0.133,0.115-0.277,0.22-0.43,0.324c-0.162,0.096-0.315,0.172-0.487,0.22
				c-0.162,0.049-0.343,0.067-0.544,0.067c-0.306,0-0.573-0.077-0.821-0.22c-0.248-0.144-0.45-0.363-0.602-0.659
				c-0.153-0.286-0.229-0.631-0.229-1.003h3.286C185.669,487.334,186.003,487.268,186.251,487.144z M181.944,486.379
				c0.057-0.563,0.219-0.993,0.487-1.289c0.268-0.287,0.611-0.43,1.032-0.43c0.439,0,0.793,0.143,1.06,0.43
				c0.267,0.287,0.42,0.716,0.468,1.289H181.944z"/>
			<path style="fill:#FFFFFF;" d="M191.867,486.694c-0.324-0.182-0.754-0.335-1.27-0.459c-0.439-0.105-0.784-0.2-1.032-0.268
				c-0.257-0.075-0.449-0.171-0.602-0.286c-0.143-0.105-0.219-0.258-0.219-0.43c0-0.191,0.095-0.353,0.296-0.487
				c0.21-0.124,0.458-0.19,0.764-0.19c0.297,0,0.526,0.048,0.698,0.152c0.171,0.096,0.325,0.229,0.449,0.392
				c0.153,0.191,0.295,0.345,0.411,0.439c0.123,0.096,0.267,0.153,0.438,0.153c0.239,0,0.43-0.067,0.554-0.191
				c0.134-0.124,0.191-0.277,0.191-0.469c0-0.181-0.057-0.362-0.182-0.543c-0.114-0.183-0.295-0.354-0.524-0.507
				c-0.23-0.153-0.517-0.268-0.869-0.362c-0.344-0.086-0.736-0.134-1.166-0.134c-0.554,0-1.031,0.086-1.423,0.267
				c-0.392,0.182-0.687,0.421-0.888,0.717c-0.201,0.296-0.295,0.621-0.295,0.955c0,0.373,0.105,0.697,0.324,0.955
				c0.219,0.258,0.506,0.468,0.869,0.621c0.363,0.152,0.831,0.306,1.413,0.448c0.506,0.124,0.878,0.258,1.099,0.392
				c0.229,0.134,0.334,0.353,0.334,0.64c0,0.201-0.105,0.363-0.315,0.516c-0.219,0.153-0.496,0.23-0.83,0.23
				c-0.411,0-0.745-0.076-0.984-0.22c-0.239-0.153-0.439-0.372-0.621-0.678c-0.076-0.153-0.171-0.277-0.268-0.363
				c-0.095-0.086-0.229-0.124-0.401-0.124c-0.2,0-0.372,0.067-0.496,0.191c-0.134,0.133-0.201,0.296-0.201,0.477
				c0,0.276,0.105,0.554,0.305,0.831c0.21,0.276,0.526,0.505,0.955,0.696c0.431,0.182,0.946,0.277,1.548,0.277
				c0.629,0,1.164-0.086,1.604-0.258c0.449-0.173,0.784-0.421,1.003-0.754c0.229-0.325,0.335-0.727,0.335-1.185
				c0-0.307-0.076-0.583-0.249-0.822C192.45,487.076,192.201,486.866,191.867,486.694z"/>
			<path style="fill:#FFFFFF;" d="M194.588,481.079c-0.229,0-0.42,0.076-0.591,0.239c-0.172,0.151-0.258,0.343-0.258,0.581
				c0,0.269,0.086,0.469,0.249,0.612c0.171,0.143,0.372,0.21,0.601,0.21c0.23,0,0.42-0.067,0.583-0.21
				c0.162-0.153,0.248-0.353,0.248-0.612c0-0.267-0.086-0.468-0.258-0.61C194.999,481.155,194.809,481.079,194.588,481.079z"/>
			<path style="fill:#FFFFFF;" d="M194.57,483.505c-0.249,0-0.449,0.086-0.602,0.258c-0.153,0.162-0.229,0.41-0.229,0.745v4.803
				c0,0.325,0.076,0.573,0.229,0.755c0.153,0.172,0.353,0.268,0.602,0.268c0.248,0,0.449-0.086,0.612-0.258
				c0.162-0.173,0.238-0.43,0.238-0.765v-4.85c0-0.297-0.076-0.535-0.238-0.697C195.019,483.591,194.818,483.505,194.57,483.505z"/>
			<path style="fill:#FFFFFF;" d="M201.962,483.505c-0.22,0-0.411,0.086-0.554,0.239c-0.144,0.162-0.211,0.391-0.211,0.678v0.228
				c-0.295-0.391-0.62-0.678-0.974-0.859c-0.343-0.182-0.754-0.276-1.232-0.276c-0.401,0-0.764,0.076-1.098,0.219
				c-0.335,0.135-0.621,0.344-0.879,0.631c-0.249,0.276-0.45,0.621-0.583,1.021c-0.144,0.411-0.21,0.859-0.21,1.365
				c0,0.679,0.114,1.271,0.343,1.786c0.22,0.516,0.545,0.917,0.964,1.203c0.42,0.297,0.908,0.439,1.472,0.439
				c0.467,0,0.868-0.095,1.212-0.286c0.334-0.191,0.63-0.468,0.888-0.821c-0.01,0.544-0.019,0.945-0.039,1.193
				c-0.009,0.249-0.066,0.478-0.162,0.697c-0.095,0.221-0.268,0.383-0.506,0.507c-0.239,0.124-0.573,0.181-1.012,0.181
				c-0.21,0-0.401-0.019-0.563-0.057c-0.163-0.038-0.306-0.096-0.421-0.182c-0.114-0.077-0.23-0.172-0.325-0.286
				c-0.095-0.115-0.19-0.229-0.277-0.334c-0.182-0.221-0.401-0.325-0.649-0.325c-0.191,0-0.363,0.066-0.497,0.19
				c-0.143,0.135-0.21,0.297-0.21,0.507c0,0.268,0.124,0.524,0.363,0.783c0.248,0.258,0.602,0.467,1.05,0.631
				c0.459,0.162,0.975,0.238,1.558,0.238c0.63,0,1.155-0.058,1.576-0.191c0.429-0.124,0.773-0.315,1.03-0.583
				c0.268-0.257,0.459-0.592,0.574-0.993c0.114-0.4,0.181-0.878,0.181-1.441v-4.87c0-0.402-0.057-0.707-0.162-0.918
				C202.506,483.609,202.286,483.505,201.962,483.505z M200.901,488.031c-0.152,0.296-0.354,0.525-0.602,0.669
				c-0.248,0.152-0.516,0.229-0.793,0.229c-0.468,0-0.86-0.171-1.155-0.524c-0.296-0.345-0.439-0.86-0.439-1.538
				s0.144-1.194,0.43-1.557c0.286-0.362,0.668-0.554,1.155-0.554c0.487,0,0.888,0.191,1.185,0.572
				c0.306,0.383,0.458,0.917,0.458,1.605C201.14,487.363,201.054,487.726,200.901,488.031z"/>
			<path style="fill:#FFFFFF;" d="M209.583,484.612c-0.173-0.353-0.431-0.62-0.784-0.821c-0.344-0.191-0.745-0.286-1.185-0.286
				c-0.458,0-0.86,0.095-1.212,0.277c-0.096,0.047-0.182,0.104-0.278,0.171c-0.239,0.172-0.468,0.401-0.688,0.688v-0.21
				c0-0.2-0.038-0.373-0.105-0.506c-0.077-0.143-0.172-0.248-0.286-0.315c-0.125-0.066-0.258-0.104-0.402-0.104
				c-0.239,0-0.43,0.075-0.573,0.239c-0.144,0.151-0.21,0.391-0.21,0.716v4.85c0,0.325,0.077,0.573,0.239,0.755
				c0.153,0.172,0.353,0.268,0.591,0.268c0.248,0,0.459-0.086,0.612-0.258c0.163-0.173,0.239-0.43,0.239-0.765v-2.1
				c0-0.688,0.038-1.155,0.124-1.404c0.115-0.315,0.296-0.554,0.535-0.734c0.248-0.183,0.526-0.269,0.821-0.269
				c0.458,0,0.764,0.145,0.917,0.439c0.153,0.297,0.229,0.717,0.229,1.271v2.798c0,0.325,0.086,0.573,0.239,0.755
				c0.153,0.172,0.353,0.268,0.611,0.268c0.239,0,0.439-0.086,0.592-0.258c0.162-0.173,0.239-0.43,0.239-0.765v-3.122
				c0-0.372-0.019-0.679-0.058-0.917C209.764,485.042,209.688,484.813,209.583,484.612z"/>
			<path style="fill:#FFFFFF;" d="M216.669,487.144c0.239-0.124,0.362-0.401,0.362-0.822c0-0.458-0.114-0.897-0.353-1.336
				c-0.23-0.44-0.583-0.803-1.051-1.079c-0.467-0.277-1.031-0.411-1.69-0.411c-0.507,0-0.965,0.076-1.376,0.238
				c-0.41,0.162-0.764,0.401-1.04,0.697c-0.287,0.307-0.506,0.669-0.649,1.098c-0.144,0.421-0.22,0.88-0.22,1.376
				c0,1.05,0.297,1.892,0.898,2.502c0.592,0.611,1.433,0.927,2.512,0.927c0.468,0,0.888-0.067,1.251-0.191
				c0.009,0,0.028-0.01,0.037-0.01c0.344-0.124,0.631-0.276,0.869-0.448c0.239-0.191,0.411-0.382,0.536-0.583
				c0.114-0.21,0.181-0.381,0.181-0.534c0-0.173-0.058-0.306-0.162-0.401c-0.105-0.096-0.248-0.143-0.419-0.143
				c-0.163,0-0.278,0.038-0.364,0.115c-0.21,0.19-0.382,0.354-0.515,0.468c-0.134,0.115-0.278,0.22-0.431,0.324
				c-0.152,0.096-0.315,0.172-0.477,0.22c-0.162,0.049-0.334,0.067-0.524,0.067h-0.01c-0.009,0-0.009,0-0.02,0
				c-0.295,0-0.573-0.077-0.821-0.22c-0.248-0.144-0.448-0.363-0.592-0.659c-0.029-0.057-0.057-0.105-0.077-0.162v-0.01
				c-0.105-0.249-0.152-0.535-0.162-0.831h3.286C216.086,487.334,216.431,487.268,216.669,487.144z M212.362,486.379
				c0.057-0.563,0.219-0.993,0.497-1.289c0.267-0.287,0.611-0.43,1.022-0.43c0.438,0,0.792,0.143,1.06,0.43
				c0.277,0.287,0.43,0.716,0.468,1.289H212.362z"/>
			<path style="fill:#FFFFFF;" d="M223.288,481.012c-0.258,0-0.459,0.086-0.592,0.258c-0.133,0.182-0.21,0.44-0.21,0.783v2.482
				c-0.315-0.343-0.63-0.602-0.964-0.772c-0.335-0.163-0.746-0.248-1.224-0.248c-0.839,0-1.509,0.295-2.024,0.878
				c-0.516,0.593-0.774,1.404-0.774,2.455c0,0.496,0.067,0.955,0.202,1.384c0.123,0.43,0.314,0.803,0.563,1.117
				c0.248,0.315,0.544,0.554,0.888,0.727c0.343,0.172,0.716,0.258,1.117,0.258c0.306,0,0.582-0.048,0.84-0.134
				c0.258-0.076,0.497-0.2,0.716-0.362c0.219-0.162,0.439-0.373,0.659-0.631v0.162c0,0.307,0.077,0.545,0.229,0.717
				c0.152,0.162,0.334,0.248,0.573,0.248c0.229,0,0.419-0.086,0.563-0.239c0.153-0.162,0.229-0.4,0.229-0.726v-7.401
				c0-0.315-0.076-0.554-0.21-0.716C223.736,481.089,223.536,481.012,223.288,481.012z M222.18,488.099
				c-0.144,0.314-0.344,0.554-0.583,0.706c-0.248,0.153-0.516,0.23-0.811,0.23c-0.286,0-0.554-0.086-0.803-0.249
				c-0.248-0.162-0.438-0.4-0.582-0.716c-0.144-0.324-0.21-0.706-0.21-1.165c0-0.43,0.066-0.811,0.201-1.137
				c0.133-0.324,0.315-0.572,0.563-0.744c0.239-0.173,0.516-0.268,0.821-0.268c0.297,0,0.565,0.086,0.813,0.257
				c0.248,0.173,0.449,0.421,0.592,0.736c0.144,0.324,0.22,0.707,0.22,1.155C222.399,487.382,222.323,487.773,222.18,488.099z"/>
			<path style="fill:#FFFFFF;" d="M233.974,485.061c-0.229-0.497-0.554-0.879-0.974-1.146c-0.42-0.268-0.907-0.4-1.471-0.4
				c-0.478,0-0.889,0.095-1.213,0.268c-0.334,0.171-0.649,0.419-0.964,0.753v-2.568c0-0.306-0.077-0.545-0.21-0.707
				c-0.144-0.171-0.344-0.248-0.602-0.248c-0.239,0-0.43,0.086-0.573,0.258c-0.134,0.173-0.201,0.43-0.201,0.773v7.325
				c0,0.315,0.067,0.555,0.211,0.717c0.143,0.162,0.324,0.248,0.563,0.248c0.239,0,0.429-0.086,0.582-0.248
				c0.153-0.162,0.229-0.401,0.229-0.717v-0.162c0.181,0.21,0.334,0.372,0.439,0.478c0.115,0.104,0.249,0.21,0.411,0.315
				c0.162,0.095,0.353,0.181,0.582,0.238c0.229,0.058,0.468,0.096,0.726,0.096c0.42,0,0.812-0.086,1.165-0.258
				c0.343-0.173,0.649-0.411,0.888-0.727c0.248-0.305,0.439-0.678,0.563-1.098c0.134-0.43,0.191-0.888,0.191-1.403
				C234.318,486.159,234.203,485.567,233.974,485.061z M232.178,488.48c-0.305,0.372-0.668,0.554-1.088,0.554
				c-0.496,0-0.898-0.182-1.203-0.544c-0.306-0.354-0.458-0.869-0.458-1.538c0-0.449,0.076-0.85,0.22-1.175
				c0.143-0.334,0.334-0.582,0.582-0.754c0.257-0.173,0.536-0.268,0.86-0.268c0.306,0,0.582,0.095,0.812,0.268
				c0.239,0.172,0.42,0.42,0.545,0.734c0.124,0.325,0.19,0.707,0.19,1.146C232.636,487.592,232.484,488.117,232.178,488.48z"/>
			<path style="fill:#FFFFFF;" d="M240.191,483.609c-0.114-0.066-0.239-0.104-0.362-0.104c-0.182,0-0.315,0.028-0.411,0.095
				c-0.096,0.058-0.191,0.183-0.277,0.353c-0.086,0.182-0.181,0.42-0.287,0.735l-1.347,3.84l-1.422-4.136
				c-0.096-0.286-0.202-0.506-0.326-0.659c-0.124-0.153-0.305-0.228-0.544-0.228c-0.143,0-0.278,0.038-0.401,0.114
				c-0.134,0.066-0.239,0.172-0.306,0.296c-0.077,0.115-0.115,0.248-0.115,0.392c0,0.143,0.066,0.354,0.191,0.659l2.063,5.195
				l-0.153,0.382c-0.115,0.267-0.211,0.478-0.306,0.621c-0.085,0.143-0.181,0.238-0.296,0.295c-0.105,0.059-0.257,0.087-0.449,0.087
				c-0.085,0-0.171-0.01-0.277-0.038c-0.086-0.02-0.181-0.038-0.267-0.038c-0.23,0-0.401,0.057-0.517,0.162
				c-0.124,0.104-0.181,0.248-0.181,0.439c0,0.286,0.124,0.478,0.373,0.592c0.248,0.105,0.611,0.153,1.107,0.153
				c0.497,0,0.898-0.076,1.194-0.229c0.306-0.153,0.545-0.373,0.716-0.659c0.182-0.286,0.372-0.678,0.554-1.185l2.196-5.73
				c0.048-0.151,0.096-0.295,0.134-0.439c0.037-0.143,0.057-0.258,0.077-0.334c0-0.124-0.029-0.248-0.096-0.363
				C240.392,483.763,240.306,483.677,240.191,483.609z"/>
			<path style="fill:#FFFFFF;" d="M263.016,482.484c0.09-0.177,0.283-0.269,0.586-0.269c0.11,0,0.249,0.015,0.403,0.036
				c0.161,0.026,0.277,0.039,0.341,0.039c0.14,0,0.262-0.057,0.361-0.166c0.104-0.11,0.156-0.244,0.156-0.398
				c0-0.483-0.488-0.721-1.472-0.721c-0.553,0-0.988,0.07-1.306,0.211c-0.317,0.142-0.545,0.367-0.678,0.677
				c-0.133,0.311-0.197,0.727-0.197,1.253v0.504h-0.4c-0.563,0-0.844,0.199-0.844,0.604c0,0.18,0.067,0.328,0.203,0.439
				c0.137,0.115,0.327,0.17,0.578,0.17h0.463v4.446c0,0.331,0.077,0.583,0.235,0.757c0.16,0.176,0.356,0.263,0.595,0.263
				c0.251,0,0.453-0.087,0.609-0.263c0.16-0.174,0.239-0.426,0.239-0.757v-4.446h0.409c0.3,0,0.535-0.037,0.704-0.111
				c0.173-0.073,0.255-0.249,0.255-0.521c0-0.388-0.317-0.58-0.959-0.58h-0.409v-0.399
				C262.89,482.917,262.934,482.663,263.016,482.484z"/>
			<path style="fill:#FFFFFF;" d="M269.235,484.469c0-0.29-0.166-0.525-0.499-0.703c-0.332-0.176-0.671-0.264-1.026-0.264
				c-0.354,0-0.633,0.088-0.848,0.264c-0.21,0.178-0.415,0.436-0.613,0.783c-0.016-0.347-0.083-0.605-0.205-0.783
				c-0.124-0.176-0.324-0.264-0.604-0.264c-0.545,0-0.816,0.378-0.816,1.133v4.674c0,0.336,0.08,0.59,0.233,0.76
				c0.154,0.175,0.353,0.26,0.6,0.26c0.245,0,0.446-0.084,0.607-0.256c0.155-0.169,0.241-0.424,0.241-0.764v-1.402
				c0-0.504,0.015-0.932,0.047-1.282c0.034-0.35,0.092-0.654,0.176-0.909c0.087-0.252,0.208-0.441,0.365-0.574
				c0.154-0.127,0.356-0.193,0.604-0.193c0.177,0,0.387,0.039,0.622,0.112c0.234,0.075,0.385,0.116,0.449,0.116
				c0.163,0,0.314-0.065,0.457-0.201C269.163,484.844,269.235,484.673,269.235,484.469z"/>
			<path style="fill:#FFFFFF;" d="M275.04,487.144c0.238-0.134,0.362-0.401,0.362-0.822c0-0.458-0.114-0.897-0.353-1.346
				c-0.229-0.44-0.582-0.793-1.05-1.069c-0.468-0.277-1.031-0.411-1.69-0.411c-0.506,0-0.965,0.076-1.375,0.238
				s-0.764,0.392-1.041,0.697c-0.286,0.307-0.507,0.669-0.649,1.089c-0.152,0.43-0.22,0.889-0.22,1.385
				c0,1.05,0.296,1.892,0.898,2.502c0.591,0.611,1.433,0.917,2.511,0.917c0.468,0,0.889-0.058,1.251-0.182
				c0.363-0.124,0.669-0.277,0.907-0.458c0.239-0.191,0.421-0.382,0.545-0.592c0.115-0.201,0.172-0.372,0.172-0.525
				c0-0.173-0.057-0.306-0.162-0.401s-0.248-0.143-0.421-0.143c-0.153,0-0.277,0.038-0.363,0.115
				c-0.209,0.19-0.381,0.354-0.516,0.458c-0.133,0.125-0.267,0.229-0.429,0.325c-0.153,0.105-0.315,0.181-0.478,0.219
				c-0.173,0.059-0.354,0.077-0.554,0.077c-0.297,0-0.574-0.077-0.822-0.22c-0.248-0.152-0.448-0.373-0.602-0.659
				c-0.143-0.286-0.22-0.631-0.229-1.012h3.286C274.458,487.325,274.801,487.268,275.04,487.144z M270.732,486.37
				c0.059-0.564,0.221-0.984,0.497-1.28c0.268-0.287,0.611-0.43,1.022-0.43c0.45,0,0.793,0.143,1.07,0.43
				c0.268,0.276,0.42,0.707,0.459,1.28H270.732z"/>
			<path style="fill:#FFFFFF;" d="M282.021,487.144c0.239-0.134,0.363-0.401,0.363-0.822c0-0.458-0.115-0.897-0.354-1.346
				c-0.229-0.44-0.583-0.793-1.051-1.069c-0.478-0.277-1.031-0.411-1.69-0.411c-0.507,0-0.965,0.076-1.376,0.238
				c-0.42,0.162-0.764,0.392-1.041,0.697c-0.286,0.307-0.505,0.669-0.648,1.089c-0.153,0.43-0.229,0.889-0.229,1.385
				c0,1.05,0.306,1.892,0.907,2.502c0.592,0.611,1.433,0.917,2.512,0.917c0.468,0,0.888-0.058,1.251-0.182
				c0.363-0.124,0.668-0.277,0.907-0.458c0.238-0.191,0.421-0.382,0.535-0.592c0.124-0.201,0.172-0.372,0.172-0.525
				c0-0.173-0.048-0.306-0.153-0.401c-0.105-0.096-0.248-0.143-0.42-0.143c-0.152,0-0.276,0.038-0.362,0.115
				c-0.211,0.19-0.383,0.354-0.516,0.458c-0.135,0.125-0.268,0.229-0.431,0.325c-0.152,0.105-0.314,0.181-0.486,0.219
				c-0.162,0.059-0.345,0.077-0.545,0.077c-0.296,0-0.572-0.077-0.821-0.22c-0.248-0.152-0.449-0.373-0.592-0.659
				c-0.152-0.286-0.229-0.631-0.238-1.012h3.284C281.439,487.325,281.783,487.268,282.021,487.144z M277.715,486.37
				c0.057-0.564,0.219-0.984,0.486-1.28c0.277-0.287,0.62-0.43,1.032-0.43c0.439,0,0.792,0.143,1.068,0.43
				c0.268,0.276,0.421,0.707,0.459,1.28H277.715z"/>
			<path style="fill:#FFFFFF;" d="M289.279,485.08c-0.257-0.506-0.602-0.898-1.031-1.165c-0.439-0.268-0.917-0.4-1.433-0.4
				c-0.43,0-0.811,0.095-1.147,0.276c-0.343,0.182-0.678,0.469-0.993,0.859v-0.201c0-0.314-0.066-0.543-0.219-0.705
				c-0.153-0.164-0.345-0.239-0.583-0.239c-0.239,0-0.43,0.075-0.573,0.228c-0.144,0.162-0.21,0.401-0.21,0.727v7.238
				c0,0.373,0.058,0.641,0.152,0.841c0.105,0.182,0.315,0.277,0.631,0.277c0.535,0,0.802-0.373,0.802-1.108v-2.511
				c0.173,0.209,0.345,0.391,0.526,0.543c0.133,0.115,0.267,0.211,0.41,0.297c0.324,0.191,0.726,0.286,1.203,0.286
				c0.401,0,0.774-0.076,1.117-0.229c0.354-0.162,0.65-0.392,0.907-0.678c0.248-0.296,0.449-0.658,0.602-1.089
				c0.144-0.43,0.211-0.907,0.211-1.423c0-0.067,0-0.133-0.01-0.2C289.624,486.083,289.499,485.549,289.279,485.08z M287.79,487.945
				c-0.011,0.038-0.02,0.076-0.038,0.114c-0.144,0.325-0.325,0.563-0.574,0.726c-0.229,0.163-0.496,0.249-0.772,0.249
				c-0.059,0-0.115,0-0.162-0.02c-0.401-0.028-0.736-0.219-1.014-0.544c-0.314-0.363-0.467-0.889-0.467-1.557
				c0-0.707,0.152-1.242,0.478-1.614c0.314-0.362,0.706-0.544,1.165-0.544c0.295,0,0.563,0.086,0.802,0.257
				c0.239,0.173,0.421,0.411,0.554,0.736c0.144,0.316,0.21,0.696,0.21,1.137C287.971,487.296,287.914,487.649,287.79,487.945z"/>
			<path style="fill:#FFFFFF;" d="M291.323,483.505c-0.238,0-0.439,0.075-0.592,0.248c-0.153,0.172-0.238,0.42-0.238,0.755v4.803
				c0,0.325,0.085,0.573,0.238,0.755c0.152,0.172,0.354,0.258,0.592,0.258c0.249,0,0.449-0.076,0.611-0.258
				c0.162-0.172,0.239-0.42,0.239-0.755v-4.85c0-0.306-0.077-0.535-0.239-0.707C291.772,483.58,291.572,483.505,291.323,483.505z"/>
			<path style="fill:#FFFFFF;" d="M291.343,481.079c-0.221,0-0.421,0.076-0.593,0.228c-0.172,0.153-0.257,0.354-0.257,0.592
				c0,0.259,0.085,0.459,0.257,0.602c0.162,0.143,0.363,0.221,0.593,0.221c0.229,0,0.419-0.077,0.592-0.221
				c0.162-0.143,0.239-0.343,0.239-0.602c0-0.267-0.086-0.478-0.249-0.61C291.753,481.146,291.563,481.079,291.343,481.079z"/>
			<path style="fill:#FFFFFF;" d="M298.948,488.712l-1.721-2.708l0.891-0.816c0.454-0.409,0.683-0.739,0.683-0.985
				c0-0.198-0.071-0.367-0.207-0.5c-0.144-0.133-0.317-0.2-0.528-0.2c-0.175,0-0.323,0.045-0.445,0.136
				c-0.126,0.088-0.302,0.26-0.535,0.503l-1.888,1.982v-4.073c0-0.342-0.078-0.604-0.229-0.777
				c-0.153-0.179-0.356-0.267-0.615-0.267c-0.265,0-0.473,0.095-0.617,0.292c-0.14,0.196-0.214,0.479-0.214,0.85v7.161
				c0,0.336,0.076,0.59,0.223,0.76c0.147,0.175,0.351,0.26,0.608,0.26c0.221,0,0.42-0.087,0.587-0.263
				c0.171-0.174,0.257-0.421,0.257-0.744v-1.337l0.911-0.859l1.478,2.436c0.188,0.288,0.341,0.488,0.451,0.601
				c0.109,0.114,0.271,0.166,0.475,0.166c0.234,0,0.428-0.075,0.573-0.229c0.146-0.155,0.221-0.363,0.221-0.632
				c0-0.091-0.029-0.195-0.084-0.298C299.167,489.064,299.073,488.915,298.948,488.712z"/>
			<path style="fill:#FFFFFF;" d="M301.219,488.478c-0.259,0-0.475,0.09-0.652,0.27c-0.177,0.18-0.266,0.395-0.266,0.645
				c0,0.297,0.094,0.528,0.277,0.689c0.186,0.164,0.403,0.246,0.656,0.246c0.245,0,0.46-0.082,0.645-0.25
				c0.182-0.163,0.273-0.393,0.273-0.685c0-0.253-0.092-0.47-0.273-0.648C301.694,488.567,301.476,488.478,301.219,488.478z"/>
			<path style="fill:#FFFFFF;" d="M308.868,487.518c-0.172,0-0.318,0.056-0.437,0.162c-0.118,0.107-0.227,0.254-0.33,0.441
				c-0.184,0.321-0.396,0.559-0.639,0.714c-0.238,0.155-0.526,0.233-0.864,0.233c-0.248,0-0.479-0.047-0.688-0.145
				c-0.209-0.098-0.386-0.238-0.535-0.424c-0.148-0.186-0.261-0.412-0.337-0.676c-0.077-0.264-0.118-0.556-0.118-0.872
				c0-0.67,0.153-1.203,0.455-1.589c0.304-0.388,0.707-0.581,1.2-0.581c0.345,0,0.628,0.078,0.85,0.234
				c0.227,0.154,0.439,0.389,0.645,0.699c0.113,0.163,0.217,0.277,0.31,0.351c0.094,0.07,0.209,0.108,0.351,0.108
				c0.209,0,0.391-0.07,0.543-0.21c0.148-0.14,0.222-0.311,0.222-0.51c0-0.197-0.065-0.411-0.198-0.639
				c-0.133-0.226-0.326-0.439-0.576-0.642c-0.254-0.2-0.56-0.366-0.923-0.491c-0.364-0.128-0.763-0.191-1.198-0.191
				c-0.698,0-1.305,0.144-1.809,0.434c-0.504,0.289-0.89,0.698-1.153,1.226c-0.268,0.529-0.4,1.138-0.4,1.828
				c0,1.017,0.291,1.827,0.871,2.434c0.582,0.603,1.393,0.907,2.433,0.907c0.484,0,0.925-0.068,1.313-0.199
				c0.391-0.13,0.712-0.305,0.968-0.52c0.257-0.215,0.449-0.44,0.573-0.68c0.126-0.237,0.189-0.462,0.189-0.67
				c0-0.174-0.069-0.342-0.205-0.498C309.243,487.598,309.074,487.518,308.868,487.518z"/>
			<path style="fill:#FFFFFF;" d="M315.925,484.449c-0.297-0.305-0.65-0.534-1.061-0.696c-0.42-0.173-0.878-0.248-1.385-0.248
				c-0.506,0-0.964,0.075-1.375,0.239c-0.411,0.162-0.765,0.391-1.061,0.696c-0.286,0.297-0.516,0.659-0.668,1.079
				c-0.153,0.421-0.23,0.889-0.23,1.395c0,0.506,0.076,0.964,0.22,1.385c0.162,0.41,0.383,0.773,0.688,1.079
				c0.286,0.306,0.65,0.545,1.051,0.707c0.401,0.162,0.859,0.248,1.375,0.248c0.507,0,0.965-0.086,1.385-0.248
				c0.401-0.162,0.755-0.392,1.052-0.698c0.295-0.305,0.524-0.667,0.677-1.088c0.153-0.421,0.229-0.888,0.229-1.385
				c0-0.506-0.076-0.965-0.229-1.386C316.44,485.118,316.221,484.756,315.925,484.449z M314.693,488.499
				c-0.307,0.392-0.707,0.583-1.214,0.583c-0.343,0-0.631-0.086-0.879-0.258c-0.248-0.182-0.439-0.431-0.572-0.765
				c-0.134-0.324-0.2-0.707-0.2-1.146c0-0.439,0.066-0.831,0.2-1.165c0.134-0.325,0.324-0.583,0.582-0.755
				c0.249-0.162,0.535-0.248,0.869-0.248c0.507,0,0.907,0.191,1.214,0.573c0.295,0.382,0.448,0.916,0.448,1.595
				C315.142,487.592,314.988,488.117,314.693,488.499z"/>
			<path style="fill:#FFFFFF;" d="M326.201,483.785c-0.331-0.179-0.73-0.271-1.187-0.271c-0.395,0-0.753,0.083-1.076,0.25
				c-0.324,0.166-0.628,0.421-0.912,0.764c-0.199-0.338-0.448-0.594-0.752-0.763c-0.302-0.166-0.664-0.251-1.086-0.251
				c-0.408,0-0.773,0.081-1.108,0.25c-0.329,0.161-0.641,0.417-0.935,0.764v-0.159c0-0.271-0.076-0.482-0.229-0.637
				c-0.156-0.15-0.346-0.23-0.577-0.23c-0.235,0-0.428,0.081-0.576,0.247c-0.145,0.162-0.217,0.403-0.217,0.72v4.802
				c0,0.348,0.081,0.612,0.243,0.792c0.162,0.177,0.37,0.267,0.626,0.267c0.258,0,0.464-0.09,0.625-0.267
				c0.154-0.18,0.234-0.444,0.234-0.792v-2.267c0-0.708,0.089-1.249,0.263-1.622c0.175-0.383,0.534-0.57,1.085-0.57
				c0.273,0,0.476,0.074,0.602,0.228c0.126,0.147,0.205,0.343,0.234,0.571c0.027,0.234,0.041,0.563,0.041,0.986v2.674
				c0,0.354,0.08,0.615,0.241,0.795c0.152,0.176,0.36,0.264,0.615,0.264c0.263,0,0.471-0.088,0.633-0.264
				c0.161-0.18,0.239-0.44,0.239-0.795v-2.23c0-0.719,0.064-1.221,0.184-1.504c0.112-0.217,0.268-0.397,0.467-0.526
				c0.198-0.129,0.408-0.198,0.63-0.198c0.273,0,0.479,0.074,0.617,0.222c0.133,0.146,0.217,0.33,0.248,0.549
				c0.028,0.216,0.044,0.505,0.044,0.865v2.823c0,0.348,0.081,0.612,0.244,0.792c0.162,0.177,0.368,0.267,0.624,0.267
				c0.262,0,0.475-0.088,0.634-0.264c0.158-0.18,0.237-0.44,0.237-0.795v-3.276c0-0.652-0.07-1.13-0.213-1.436
				C326.779,484.225,326.531,483.966,326.201,483.785z"/>
			<path style="fill:#FFFFFF;" d="M248.735,480.551c0.641-0.213,1.194-0.342,1.698-0.397c0.493-0.053,0.864-0.075,1.167-0.075
				c0.324,0,0.564,0.025,0.838,0.072l0.078-0.493c0,0-0.758-0.233-1.754-0.152l-0.078-0.269c0.31-0.065,0.542-0.341,0.542-0.67
				c0-0.377-0.307-0.682-0.684-0.682c-0.377,0-0.684,0.305-0.684,0.682c0,0.329,0.232,0.604,0.542,0.67l0.086,0.299
				c-1.058,0.146-1.9,0.559-1.9,0.559L248.735,480.551z"/>
			<path style="fill:#FFFFFF;" d="M245.734,482.571c0.024-0.032,0.048-0.063,0.073-0.093l-0.202-0.145l-0.316-0.23
				c-0.018,0.025-0.515,0.48-0.908,1.325c-0.017-0.026-0.035-0.053-0.058-0.078c-0.118-0.127-0.282-0.192-0.491-0.189
				c-0.002,0-0.005,0-0.009,0c-0.129,0-0.218-0.044-0.276-0.097c0.058-0.072,0.091-0.165,0.091-0.268
				c0-0.237-0.194-0.433-0.433-0.433c-0.239,0-0.433,0.195-0.433,0.433c0,0.24,0.194,0.434,0.433,0.434
				c0.037,0,0.074-0.006,0.108-0.013c0.106,0.117,0.275,0.221,0.522,0.216c0.128-0.001,0.221,0.031,0.284,0.101
				c0.072,0.078,0.096,0.19,0.104,0.276c-0.001,0.001-0.001,0.003-0.002,0.003c-0.283,0.771-0.202,1.728-0.202,1.728l0.684,0.026
				c0.015-0.349,0.064-0.958,0.241-1.443c0.341-0.938,0.769-1.523,0.785-1.549L245.734,482.571z"/>
			<path style="fill:#FFFFFF;" d="M257.554,480.651c-0.238,0-0.433,0.192-0.433,0.433c0,0.037,0.006,0.072,0.015,0.107
				c-0.118,0.107-0.222,0.276-0.218,0.523c0.002,0.128-0.031,0.221-0.101,0.283c-0.055,0.048-0.124,0.074-0.19,0.091
				c-0.51-0.713-1.137-1.148-1.137-1.148l-0.491,0.525c0.371,0.338,0.75,0.762,1.118,1.288c0.255,0.365,0.518,0.836,0.736,1.305
				l0.662-0.314c0,0-0.303-0.748-0.729-1.419c0.073-0.026,0.148-0.066,0.215-0.124c0.129-0.117,0.192-0.282,0.188-0.49
				c0-0.136,0.043-0.227,0.097-0.287c0.073,0.058,0.166,0.094,0.267,0.094c0.24,0,0.434-0.195,0.434-0.434
				C257.987,480.844,257.794,480.651,257.554,480.651z"/>
			<path style="fill:#FFFFFF;" d="M255.834,486.606c-0.912,0.445-2.414,1.032-4.389,1.308c-0.775,0.107-1.527,0.147-2.219,0.147
				c-0.901,0-1.695-0.066-2.305-0.145c-0.698-0.087-1.243-0.194-1.575-0.27c0,0-0.001,0-0.002,0c0.082,0.26,0.182,0.511,0.295,0.75
				c0.003,0.007,0.006,0.014,0.008,0.018c0.014,0.028,0.028,0.059,0.042,0.087c0.015,0.028,0.028,0.056,0.043,0.082
				c0.004,0.008,0.007,0.015,0.011,0.021c0.196,0.369,0.431,0.709,0.7,1.003c0.931,1.02,1.881,1.181,1.889,1.182l0.015,0.002
				l0.015,0.004c0.008,0.004,0.85,0.275,2.13,0.275c1.259,0,2.495-0.254,3.671-0.755c0.872-0.446,1.698-1.124,2.106-1.728
				c0.316-0.468,0.545-0.966,0.68-1.484c0.072-0.275,0.129-0.717,0.096-1.181C256.789,486.094,256.383,486.339,255.834,486.606z"/>
			<path style="fill:#FFFFFF;" d="M251.365,487.373c1.9-0.268,3.333-0.822,4.211-1.252c0.726-0.344,1.194-0.668,1.376-0.802
				c-0.182-0.659-0.678-1.71-1.137-2.359c-1.289-1.853-2.692-2.33-3.409-2.445c-0.277-0.047-0.497-0.066-0.803-0.066
				c-0.296,0-0.649,0.02-1.136,0.066c-0.478,0.049-1.012,0.182-1.633,0.392c-0.878,0.287-1.662,0.745-2.283,1.318l-0.019,0.02
				c-0.095,0.086-0.287,0.268-0.506,0.545c-0.029,0.038-0.43,0.602-0.736,1.46c-0.239,0.65-0.229,1.586-0.229,1.595
				c0,0.221,0.02,0.439,0.038,0.659c0,0,0,0,0,0.01c0.009,0.029,0.009,0.048,0.009,0.076c0.019,0.153,0.049,0.307,0.077,0.459
				C245.645,487.162,248.348,487.792,251.365,487.373z M253.963,482.358c0.62,0,1.127,0.506,1.127,1.127
				c0,0.631-0.507,1.137-1.127,1.137c-0.621,0-1.127-0.506-1.127-1.137C252.836,482.864,253.342,482.358,253.963,482.358z
				 M246.81,484.135c0-1.003,0.811-1.814,1.823-1.814c1.004,0,1.824,0.811,1.824,1.814c0,1.013-0.82,1.824-1.824,1.824
				C247.621,485.959,246.81,485.147,246.81,484.135z"/>
		</g>
	</g>
	<g id="Favoritos_3_">
	</g>
	<g id="Favoritos_4_">
	</g>
	<g id="Favoritos_5_">
	</g>
</g>
</svg>
